<svg xmlns="http://www.w3.org/2000/svg" width="103.28" height="96.257" viewBox="0 0 103.28 96.257">
  <g id="Group_16970" data-name="Group 16970" transform="translate(0.696 0.696)">
    <g id="Group_1115" data-name="Group 1115" transform="translate(0.304 0.304)">
      <path id="Path_6033" data-name="Path 6033" d="M17.536,66.952a16.282,16.282,0,0,1-8.789-2.51,16.842,16.842,0,0,1,6.729-30.849A33.128,33.128,0,0,1,79.859,23.157c.133,0,.265-.01.4-.01A21.984,21.984,0,0,1,82.4,67.014C81.935,67.058,17.536,66.952,17.536,66.952Z" transform="translate(-1.001 -0.999)" fill="#79a2f7" stroke="#0037cb" stroke-width="1"/>
      <path id="Path_6034" data-name="Path 6034" d="M17.534,66.953a16.282,16.282,0,0,1-8.789-2.51,16.842,16.842,0,0,1,6.729-30.849A33.128,33.128,0,0,1,79.857,23.158c.133,0,.265-.01.4-.01a21.984,21.984,0,0,1,2.137,43.867C81.933,67.059,17.534,66.953,17.534,66.953Z" transform="translate(-1 -1)" fill="#00d4f7" stroke="#0037cb" stroke-width="1"/>
      <path id="Path_6035" data-name="Path 6035" d="M17.534,66.953a16.282,16.282,0,0,1-8.789-2.51,16.842,16.842,0,0,1,6.729-30.849A33.128,33.128,0,0,1,79.857,23.158c.133,0,.265-.01.4-.01a21.984,21.984,0,0,1,2.137,43.867C81.933,67.059,17.534,66.953,17.534,66.953Z" transform="translate(-1 -1)" fill="none" stroke="#0037cb" stroke-linecap="round" stroke-linejoin="round" stroke-width="2"/>
      <path id="Path_6036" data-name="Path 6036" d="M100.188,178.651H61.674a4.085,4.085,0,0,1-4.076-4.094V166.24a4.076,4.076,0,1,1,8.151,0v3.2a1.019,1.019,0,0,0,1.019,1.019H95.094a1.019,1.019,0,0,0,1.019-1.019v-3.2a4.076,4.076,0,1,1,8.151,0v8.317a4.085,4.085,0,0,1-4.076,4.094" transform="translate(-30.29 -84.394)" fill="#fff" stroke="#0037cb" stroke-width="1"/>
      <path id="Path_6037" data-name="Path 6037" d="M100.188,178.651H61.674a4.085,4.085,0,0,1-4.076-4.094V166.24a4.076,4.076,0,1,1,8.151,0v3.2a1.019,1.019,0,0,0,1.019,1.019H95.094a1.019,1.019,0,0,0,1.019-1.019v-3.2a4.076,4.076,0,1,1,8.151,0v8.317A4.085,4.085,0,0,1,100.188,178.651Z" transform="translate(-30.29 -84.394)" fill="none" stroke="#0037cb" stroke-linecap="round" stroke-linejoin="round" stroke-width="2"/>
      <path id="Path_6038" data-name="Path 6038" d="M83.292,117a4.611,4.611,0,1,0,9.223,0V97.351l4.349,4.374a4.591,4.591,0,0,0,6.52,0,4.654,4.654,0,0,0,0-6.558L91.164,82.874a4.592,4.592,0,0,0-6.52,0L72.423,95.166a4.656,4.656,0,0,0,0,6.558,4.591,4.591,0,0,0,6.52,0l4.349-4.374Z" transform="translate(-37.263 -42.667)" fill="#fff" stroke="#0037cb" stroke-width="1"/>
      <path id="Path_6039" data-name="Path 6039" d="M83.292,117a4.611,4.611,0,1,0,9.223,0V97.351l4.349,4.374a4.591,4.591,0,0,0,6.52,0,4.654,4.654,0,0,0,0-6.558L91.164,82.874a4.592,4.592,0,0,0-6.52,0L72.423,95.166a4.656,4.656,0,0,0,0,6.558,4.591,4.591,0,0,0,6.52,0l4.349-4.374Z" transform="translate(-37.263 -42.667)" fill="none" stroke="#0037cb" stroke-miterlimit="10" stroke-width="2"/>
    </g>
  </g>
</svg>
