<svg id="SCS_LOGO" data-name="SCS LOGO" xmlns="http://www.w3.org/2000/svg" xmlns:xlink="http://www.w3.org/1999/xlink" width="260" height="20.841" viewBox="0 0 260 20.841">
  <defs>
    <clipPath id="clip-path">
      <rect id="Rectangle_10738" data-name="Rectangle 10738" width="260" height="20.841" fill="none"/>
    </clipPath>
  </defs>
  <g id="Group_13540" data-name="Group 13540" clip-path="url(#clip-path)">
    <path id="Path_5082" data-name="Path 5082" d="M12.06,13.06a1.911,1.911,0,0,1-1.89,1.973c-.417,0-.417,0-1.473-.389a5.825,5.825,0,0,0-1.89-.361c-1.25,0-2.14.639-2.14,1.528a1.259,1.259,0,0,0,.583,1.056c.5.361.5.361,2.279.834,4.085,1.112,5.836,2.862,5.836,5.863a6.324,6.324,0,0,1-1.584,4.252,7.271,7.271,0,0,1-5.474,1.973c-3.7,0-6.308-1.306-6.308-3.14A1.953,1.953,0,0,1,1.834,24.62c.528,0,.528,0,2.557.778a6.183,6.183,0,0,0,2.084.417c1.417,0,2.334-.778,2.334-1.945a1.472,1.472,0,0,0-.723-1.334,9.822,9.822,0,0,0-2.946-1.112c-2.167-.639-3.029-1.056-3.807-1.834A4.593,4.593,0,0,1,.139,16.228c0-3.446,2.862-5.919,6.836-5.919,2.973,0,5.085,1.139,5.085,2.751" transform="translate(0 -8.947)"/>
    <path id="Path_5083" data-name="Path 5083" d="M115.718,47.891a2.088,2.088,0,0,1,2.028-2.362c.806,0,1.251.278,1.973,1.334a4.834,4.834,0,0,1,3.585-1.417,5.643,5.643,0,0,1,2.779.695,3.358,3.358,0,0,1,1.139,1.084,6.142,6.142,0,0,1,4.279-1.778,4.683,4.683,0,0,1,4.918,4.724v7.114a2.95,2.95,0,0,1-.278,1.7,2.028,2.028,0,0,1-3.529,0,2.9,2.9,0,0,1-.278-1.7v-6.2a1.991,1.991,0,0,0-2.084-2.112,2.035,2.035,0,0,0-2.14,2.112v6.2a2.951,2.951,0,0,1-.278,1.7,2.028,2.028,0,0,1-3.529,0,2.9,2.9,0,0,1-.278-1.7V51.476c0-1.584-.778-2.5-2.112-2.5a2.044,2.044,0,0,0-2.112,2.112v6.2a2.95,2.95,0,0,1-.278,1.7,2.028,2.028,0,0,1-3.529,0,2.9,2.9,0,0,1-.278-1.7Z" transform="translate(-100.435 -39.444)"/>
    <path id="Path_5084" data-name="Path 5084" d="M299.215,57.591a2.1,2.1,0,0,1-4.113.806,3.741,3.741,0,0,1-3.362,1.7,5.964,5.964,0,0,1-4.029-1.556,7.368,7.368,0,0,1-2.418-5.835,7.038,7.038,0,0,1,2.14-5.391,5.911,5.911,0,0,1,4.252-1.862,4.287,4.287,0,0,1,3.474,1.612,2.064,2.064,0,0,1,4.057.556Zm-9.837-4.863c0,2.14,1.112,3.557,2.834,3.557,1.667,0,2.807-1.445,2.807-3.529s-1.139-3.5-2.835-3.5c-1.667,0-2.807,1.417-2.807,3.474" transform="translate(-247.614 -39.445)"/>
    <path id="Path_5085" data-name="Path 5085" d="M408.585,47.865a2.068,2.068,0,0,1,2.056-2.334,2.135,2.135,0,0,1,2.029,1.445c1.139-1.139,1.862-1.528,2.807-1.528a2.087,2.087,0,0,1,2.084,2.112c0,.973-.417,1.362-2.084,1.862-2.223.75-2.862,1.362-2.807,2.723v5.141a2.95,2.95,0,0,1-.278,1.7,2.028,2.028,0,0,1-3.529,0,2.9,2.9,0,0,1-.278-1.7Z" transform="translate(-354.622 -39.445)"/>
    <path id="Path_5086" data-name="Path 5086" d="M486.521,27.518a2.951,2.951,0,0,1-.278,1.7,2.028,2.028,0,0,1-3.529,0,2.9,2.9,0,0,1-.278-1.7V19.654a2.465,2.465,0,0,1-2.056-.584,2,2,0,0,1-.472-1.25,1.76,1.76,0,0,1,1.584-1.806,3.473,3.473,0,0,1,.945-.056V13.846a2.794,2.794,0,0,1,.278-1.667,2.011,2.011,0,0,1,1.778-1.028,2.032,2.032,0,0,1,1.751,1,2.9,2.9,0,0,1,.278,1.7v2.112h.75a2.752,2.752,0,0,1,1.556.25,1.88,1.88,0,0,1,.917,1.612,1.8,1.8,0,0,1-.917,1.584,2.754,2.754,0,0,1-1.556.25h-.75Z" transform="translate(-416.525 -9.678)"/>
    <path id="Path_5087" data-name="Path 5087" d="M622.842,13.31a1.742,1.742,0,0,1-1.723,1.89,3.7,3.7,0,0,1-1.556-.445,5.092,5.092,0,0,0-2.223-.472c-2.918,0-4.669,2.167-4.669,5.808,0,3.585,1.751,5.725,4.7,5.725,1.056,0,1.056,0,2.945-.862a2.576,2.576,0,0,1,.945-.222,1.86,1.86,0,0,1,1.723,1.945c0,1.806-2.362,3.112-5.613,3.112-5.586,0-9.254-3.89-9.254-9.809,0-5.7,3.779-9.67,9.2-9.67,3.307,0,5.53,1.223,5.53,3" transform="translate(-527.799 -8.947)" fill="#125be9"/>
    <path id="Path_5088" data-name="Path 5088" d="M737.112,47.67a7.482,7.482,0,0,1,1.834,5.113c0,4.168-2.918,7.308-6.808,7.308a6.817,6.817,0,0,1-5-2.223,7.421,7.421,0,0,1-1.834-5.2,6.942,6.942,0,0,1,6.836-7.225,6.8,6.8,0,0,1,4.974,2.223m-7.781,5.057c0,2.056,1.167,3.557,2.723,3.557,1.612,0,2.862-1.556,2.862-3.529,0-1.945-1.25-3.5-2.862-3.5-1.528,0-2.723,1.528-2.723,3.474" transform="translate(-629.51 -39.445)" fill="#125be9"/>
    <path id="Path_5089" data-name="Path 5089" d="M841.439,47.92a2.121,2.121,0,0,1,2.084-2.39,1.87,1.87,0,0,1,1.89,1.417,4.845,4.845,0,0,1,3.751-1.5,5.315,5.315,0,0,1,3.557,1.223c1.084.973,1.473,1.973,1.473,3.918v6.7a2.95,2.95,0,0,1-.278,1.7,2.028,2.028,0,0,1-3.529,0,2.9,2.9,0,0,1-.278-1.7V51.56a2.281,2.281,0,0,0-2.279-2.584,2.327,2.327,0,0,0-2.306,2.417v5.891a2.949,2.949,0,0,1-.278,1.7,2.028,2.028,0,0,1-3.529,0,2.9,2.9,0,0,1-.278-1.7Z" transform="translate(-730.308 -39.445)" fill="#125be9"/>
    <path id="Path_5090" data-name="Path 5090" d="M953.671,27.518a2.95,2.95,0,0,1-.278,1.7,2.028,2.028,0,0,1-3.529,0,2.9,2.9,0,0,1-.278-1.7V19.654a2.465,2.465,0,0,1-2.056-.584,2,2,0,0,1-.472-1.25,1.76,1.76,0,0,1,1.584-1.806,3.474,3.474,0,0,1,.945-.056V13.846a2.8,2.8,0,0,1,.278-1.667,2.011,2.011,0,0,1,1.779-1.028,2.032,2.032,0,0,1,1.751,1,2.9,2.9,0,0,1,.278,1.7v2.112h.75a2.752,2.752,0,0,1,1.556.25,1.881,1.881,0,0,1,.917,1.612,1.8,1.8,0,0,1-.917,1.584,2.754,2.754,0,0,1-1.556.25h-.75Z" transform="translate(-821.977 -9.678)" fill="#125be9"/>
    <path id="Path_5091" data-name="Path 5091" d="M1029.741,47.865a2.068,2.068,0,0,1,2.056-2.334,2.135,2.135,0,0,1,2.029,1.445c1.139-1.139,1.862-1.528,2.807-1.528a2.087,2.087,0,0,1,2.084,2.112c0,.973-.417,1.362-2.084,1.862-2.223.75-2.862,1.362-2.807,2.723v5.141a2.951,2.951,0,0,1-.278,1.7,2.028,2.028,0,0,1-3.529,0,2.9,2.9,0,0,1-.278-1.7Z" transform="translate(-893.741 -39.445)" fill="#125be9"/>
    <path id="Path_5092" data-name="Path 5092" d="M1111.829,57.591a2.1,2.1,0,0,1-4.113.806,3.741,3.741,0,0,1-3.362,1.7,5.964,5.964,0,0,1-4.029-1.556,7.369,7.369,0,0,1-2.418-5.835,7.038,7.038,0,0,1,2.14-5.391,5.911,5.911,0,0,1,4.252-1.862,4.287,4.287,0,0,1,3.474,1.612,2.064,2.064,0,0,1,4.057.556Zm-9.837-4.863c0,2.14,1.111,3.557,2.834,3.557,1.667,0,2.807-1.445,2.807-3.529s-1.139-3.5-2.834-3.5c-1.667,0-2.807,1.417-2.807,3.474" transform="translate(-952.904 -39.445)" fill="#125be9"/>
    <path id="Path_5093" data-name="Path 5093" d="M1226.233,46.281a2.179,2.179,0,0,1,1.139,1.862,1.742,1.742,0,0,1-1.612,1.834,3.463,3.463,0,0,1-1.473-.417,3.981,3.981,0,0,0-1.473-.306c-1.75,0-3,1.473-3,3.529,0,2.112,1.251,3.5,3.112,3.5a4.015,4.015,0,0,0,1.612-.389,2.16,2.16,0,0,1,1.167-.361,1.762,1.762,0,0,1,1.7,1.862,1.967,1.967,0,0,1-.778,1.5,7.243,7.243,0,0,1-4.085,1.195,6.466,6.466,0,0,1-4.946-2.112,7.084,7.084,0,0,1-1.862-5.252,7.13,7.13,0,0,1,2.112-5.391,7.411,7.411,0,0,1,4.863-1.89,7.6,7.6,0,0,1,3.529.834" transform="translate(-1055.165 -39.445)" fill="#125be9"/>
    <path id="Path_5094" data-name="Path 5094" d="M1315.964,27.518a2.95,2.95,0,0,1-.278,1.7,2.028,2.028,0,0,1-3.529,0,2.9,2.9,0,0,1-.278-1.7V19.654a2.465,2.465,0,0,1-2.056-.584,2.005,2.005,0,0,1-.472-1.25,1.76,1.76,0,0,1,1.584-1.806,3.473,3.473,0,0,1,.945-.056V13.846a2.794,2.794,0,0,1,.278-1.667,2.01,2.01,0,0,1,1.779-1.028,2.032,2.032,0,0,1,1.75,1,2.9,2.9,0,0,1,.278,1.7v2.112h.75a2.752,2.752,0,0,1,1.556.25,1.88,1.88,0,0,1,.917,1.612,1.8,1.8,0,0,1-.917,1.584,2.753,2.753,0,0,1-1.556.25h-.75Z" transform="translate(-1136.421 -9.678)" fill="#125be9"/>
    <path id="Path_5095" data-name="Path 5095" d="M1397.505,48.254a1.763,1.763,0,0,1-1.584,1.778c-.445,0-.473,0-1.723-.556a3.951,3.951,0,0,0-1.556-.417c-.667,0-1.084.278-1.084.722,0,.528.222.667,2.14,1.417a7.764,7.764,0,0,1,3.112,1.778,3.687,3.687,0,0,1,1,2.556c0,2.7-2.195,4.557-5.391,4.557-2.779,0-5.224-1.389-5.224-2.946a1.87,1.87,0,0,1,1.7-1.834c.473,0,.473,0,2.112.723a4.037,4.037,0,0,0,1.64.445,1.084,1.084,0,0,0,1.195-.945c0-.472-.306-.722-1.556-1.195A12.066,12.066,0,0,1,1389,52.811a3.281,3.281,0,0,1-1.389-2.945c0-2.529,2.251-4.418,5.252-4.418,2.473,0,4.641,1.306,4.641,2.807" transform="translate(-1203.986 -39.445)" fill="#125be9"/>
    <path id="Path_5096" data-name="Path 5096" d="M1526.858,13.06a1.911,1.911,0,0,1-1.89,1.973c-.417,0-.417,0-1.473-.389a5.825,5.825,0,0,0-1.89-.361c-1.25,0-2.14.639-2.14,1.528a1.259,1.259,0,0,0,.584,1.056c.5.361.5.361,2.279.834,4.085,1.112,5.835,2.862,5.835,5.863a6.323,6.323,0,0,1-1.584,4.252,7.271,7.271,0,0,1-5.474,1.973c-3.7,0-6.308-1.306-6.308-3.14a1.953,1.953,0,0,1,1.834-2.028c.528,0,.528,0,2.557.778a6.184,6.184,0,0,0,2.084.417c1.417,0,2.334-.778,2.334-1.945a1.472,1.472,0,0,0-.723-1.334,9.819,9.819,0,0,0-2.946-1.112c-2.167-.639-3.029-1.056-3.807-1.834a4.594,4.594,0,0,1-1.195-3.362c0-3.446,2.862-5.919,6.836-5.919,2.973,0,5.085,1.139,5.085,2.751" transform="translate(-1314.735 -8.947)"/>
    <path id="Path_5097" data-name="Path 5097" d="M1643.187,54.859a5.057,5.057,0,0,1-1,3.362,7.1,7.1,0,0,1-10.671,0,5.056,5.056,0,0,1-1-3.362V48.8a2.95,2.95,0,0,1,.278-1.7,2.028,2.028,0,0,1,3.529,0,2.9,2.9,0,0,1,.278,1.7v5.558a2.1,2.1,0,0,0,.639,1.751,2.352,2.352,0,0,0,3.224,0,2.1,2.1,0,0,0,.639-1.751V48.8a2.95,2.95,0,0,1,.278-1.7,2.028,2.028,0,0,1,3.529,0,2.9,2.9,0,0,1,.278,1.7Z" transform="translate(-1415.17 -39.992)"/>
    <path id="Path_5098" data-name="Path 5098" d="M1749.3,2.362a2.376,2.376,0,1,1-4.752,0,2.376,2.376,0,0,1,4.752,0m-4.446,6.447a2.948,2.948,0,0,1,.278-1.7,2.028,2.028,0,0,1,3.529,0,2.9,2.9,0,0,1,.278,1.7V17.84a2.952,2.952,0,0,1-.278,1.7,2.028,2.028,0,0,1-3.529,0,2.9,2.9,0,0,1-.278-1.7Z" transform="translate(-1514.142)"/>
    <path id="Path_5099" data-name="Path 5099" d="M1796.184,27.518a2.949,2.949,0,0,1-.278,1.7,2.028,2.028,0,0,1-3.529,0,2.9,2.9,0,0,1-.278-1.7V19.654a2.465,2.465,0,0,1-2.056-.584,2,2,0,0,1-.473-1.25,1.76,1.76,0,0,1,1.584-1.806,3.473,3.473,0,0,1,.945-.056V13.846a2.794,2.794,0,0,1,.278-1.667,2.011,2.011,0,0,1,1.779-1.028,2.032,2.032,0,0,1,1.75,1,2.9,2.9,0,0,1,.278,1.7v2.112h.75a2.754,2.754,0,0,1,1.556.25,1.881,1.881,0,0,1,.917,1.612,1.8,1.8,0,0,1-.917,1.584,2.755,2.755,0,0,1-1.556.25h-.75Z" transform="translate(-1553.217 -9.678)"/>
    <path id="Path_5100" data-name="Path 5100" d="M1868.651,54.117a3.217,3.217,0,0,0,3.251,2.418c.973,0,1.223-.083,3.362-1.139a2.312,2.312,0,0,1,.889-.195,1.745,1.745,0,0,1,1.64,1.667c0,1.667-2.973,3.223-6.114,3.223-4.363,0-7.419-2.946-7.419-7.114,0-4.335,2.973-7.531,7-7.531a6.837,6.837,0,0,1,6.78,7.058c0,1.139-.528,1.612-1.778,1.612Zm5.363-2.779a4.4,4.4,0,0,0-.584-1.5,2.541,2.541,0,0,0-2.084-1.056c-1.362,0-2.251.778-2.834,2.557Z" transform="translate(-1618.043 -39.445)"/>
  </g>
</svg>
