<svg id="Component_39_1" data-name="Component 39 – 1" xmlns="http://www.w3.org/2000/svg" xmlns:xlink="http://www.w3.org/1999/xlink" width="200" height="53.164" viewBox="0 0 200 53.164">
  <defs>
    <clipPath id="clip-path">
      <rect id="Rectangle_10737" data-name="Rectangle 10737" width="200" height="53.164" fill="none"/>
    </clipPath>
  </defs>
  <g id="Group_13542" data-name="Group 13542" transform="translate(0 0)">
    <g id="Group_13538" data-name="Group 13538" transform="translate(0 0)" clip-path="url(#clip-path)">
      <path id="Path_5057" data-name="Path 5057" d="M136.682,53.164H46.527A12.567,12.567,0,0,1,33.958,40.6V0H136.682Z" transform="translate(57.987 0)" fill="#171716"/>
      <path id="Path_5058" data-name="Path 5058" d="M12.377,27.506a1.473,1.473,0,0,1,.363,1.018,1.273,1.273,0,0,1-.439.98,1.542,1.542,0,0,1-1.091.4h-.761a6.476,6.476,0,0,1-5.832-3.436,7.387,7.387,0,0,1-.856-3.579v-9.7H1.4a1.254,1.254,0,0,1-.929-.347,1.159,1.159,0,0,1-.344-.856,1.2,1.2,0,0,1,.344-.888,1.254,1.254,0,0,1,.929-.347H3.762V5.114A1.418,1.418,0,0,1,4.143,4.1a1.323,1.323,0,0,1,1-.4A1.371,1.371,0,0,1,6.561,5.114v5.635h4.107a1.256,1.256,0,0,1,.926.347,1.2,1.2,0,0,1,.344.888,1.159,1.159,0,0,1-.344.856,1.256,1.256,0,0,1-.926.347H6.561v9.7a4.291,4.291,0,0,0,1.091,3.035,3.629,3.629,0,0,0,2.8,1.181h.98a1.231,1.231,0,0,1,.948.4" transform="translate(0.219 6.309)" fill="#2e2e2d"/>
      <path id="Path_5059" data-name="Path 5059" d="M11.432,30.465h-.764A6.827,6.827,0,0,1,4.53,26.848a7.784,7.784,0,0,1-.9-3.742V13.743H1.616A1.588,1.588,0,0,1,.444,13.3,1.5,1.5,0,0,1,0,12.2a1.551,1.551,0,0,1,.444-1.134,1.6,1.6,0,0,1,1.172-.444H3.634V5.331A1.769,1.769,0,0,1,4.11,4.074a1.662,1.662,0,0,1,1.251-.506,1.713,1.713,0,0,1,1.76,1.763v5.291h3.764a1.591,1.591,0,0,1,1.17.444A1.543,1.543,0,0,1,12.5,12.2a1.5,1.5,0,0,1-.444,1.1,1.588,1.588,0,0,1-1.172.447H7.121v9.363a3.923,3.923,0,0,0,1,2.8,3.275,3.275,0,0,0,2.545,1.072h.98a1.548,1.548,0,0,1,1.2.512,1.793,1.793,0,0,1,.455,1.248,1.615,1.615,0,0,1-.55,1.237,1.886,1.886,0,0,1-1.321.49M1.616,11.309a.918.918,0,0,0-.685.244.876.876,0,0,0-.244.647.822.822,0,0,0,.244.612.929.929,0,0,0,.685.244H4.324V23.106a7.093,7.093,0,0,0,.812,3.414,6.125,6.125,0,0,0,5.532,3.255h.764a1.2,1.2,0,0,0,.856-.309.936.936,0,0,0,.325-.728,1.115,1.115,0,0,0-.273-.785.883.883,0,0,0-.69-.287h-.98a3.974,3.974,0,0,1-3.051-1.292,4.648,4.648,0,0,1-1.183-3.268V13.055h4.451a.929.929,0,0,0,.685-.244.822.822,0,0,0,.244-.612.876.876,0,0,0-.244-.647.929.929,0,0,0-.685-.244H6.433V5.331A1.026,1.026,0,0,0,5.361,4.256a.987.987,0,0,0-.753.3,1.073,1.073,0,0,0-.284.78v5.978Z" transform="translate(0 6.092)" fill="#2e2e2d"/>
      <path id="Path_5060" data-name="Path 5060" d="M11,24.9a9.419,9.419,0,0,1-3.617-3.617,10.319,10.319,0,0,1-1.308-5.18,10.427,10.427,0,0,1,1.308-5.2A9.388,9.388,0,0,1,11,7.274a10.321,10.321,0,0,1,5.18-1.31,10.221,10.221,0,0,1,5.161,1.31,9.573,9.573,0,0,1,3.617,3.634,10.3,10.3,0,0,1,1.327,5.2,10.319,10.319,0,0,1-1.308,5.18A9.456,9.456,0,0,1,21.359,24.9a10.326,10.326,0,0,1-5.18,1.308A10.319,10.319,0,0,1,11,24.9m8.959-2.218a6.974,6.974,0,0,0,2.618-2.708,7.951,7.951,0,0,0,.945-3.872,8.021,8.021,0,0,0-.945-3.907A6.956,6.956,0,0,0,19.96,9.492a7.32,7.32,0,0,0-3.78-.983,7.352,7.352,0,0,0-3.764.983A7.025,7.025,0,0,0,9.763,12.2,7.885,7.885,0,0,0,8.8,16.107a7.816,7.816,0,0,0,.964,3.872,7.043,7.043,0,0,0,2.653,2.708,7.35,7.35,0,0,0,3.764.98,7.318,7.318,0,0,0,3.78-.98" transform="translate(10.374 10.184)" fill="#2e2e2d"/>
      <path id="Path_5061" data-name="Path 5061" d="M16.4,26.772a10.682,10.682,0,0,1-5.35-1.354A9.8,9.8,0,0,1,7.3,21.671a10.682,10.682,0,0,1-1.354-5.35A10.821,10.821,0,0,1,7.3,10.954a9.757,9.757,0,0,1,3.747-3.764A10.7,10.7,0,0,1,16.4,5.837a10.6,10.6,0,0,1,5.331,1.354,9.963,9.963,0,0,1,3.747,3.764,10.712,10.712,0,0,1,1.367,5.366,10.714,10.714,0,0,1-1.348,5.35,9.826,9.826,0,0,1-3.747,3.747,10.7,10.7,0,0,1-5.35,1.354M11.388,24.82A10.026,10.026,0,0,0,16.4,26.082,10.023,10.023,0,0,0,21.4,24.82a9.123,9.123,0,0,0,3.487-3.487,10,10,0,0,0,1.264-5.012A10,10,0,0,0,24.877,11.3a9.262,9.262,0,0,0-3.493-3.506A9.9,9.9,0,0,0,16.4,6.525a10,10,0,0,0-5.009,1.264,9.109,9.109,0,0,0-3.487,3.5,10.122,10.122,0,0,0-1.264,5.028A10.017,10.017,0,0,0,7.9,21.333a9.142,9.142,0,0,0,3.487,3.487m5.009-.593A7.707,7.707,0,0,1,12.463,23.2a7.4,7.4,0,0,1-2.783-2.838,8.2,8.2,0,0,1-1.007-4.04,8.28,8.28,0,0,1,1.007-4.075,7.413,7.413,0,0,1,2.783-2.838A7.7,7.7,0,0,1,16.4,8.382,7.7,7.7,0,0,1,20.35,9.408a7.363,7.363,0,0,1,2.746,2.84,8.384,8.384,0,0,1,.988,4.072,8.3,8.3,0,0,1-.988,4.037A7.326,7.326,0,0,1,20.35,23.2,7.7,7.7,0,0,1,16.4,24.227m0-15.157a7.044,7.044,0,0,0-3.59.934,6.729,6.729,0,0,0-2.523,2.578,7.563,7.563,0,0,0-.921,3.739,7.472,7.472,0,0,0,.921,3.7A6.71,6.71,0,0,0,12.806,22.6a7.019,7.019,0,0,0,3.59.937A7.033,7.033,0,0,0,20,22.605a6.634,6.634,0,0,0,2.486-2.578,7.628,7.628,0,0,0,.907-3.707,7.721,7.721,0,0,0-.907-3.742A6.645,6.645,0,0,0,20,10,7.033,7.033,0,0,0,16.4,9.07" transform="translate(10.157 9.967)" fill="#2e2e2d"/>
      <path id="Path_5062" data-name="Path 5062" d="M35.373,12.775v8.542a10.234,10.234,0,0,1-1.327,5.163,9.665,9.665,0,0,1-3.634,3.653,10.135,10.135,0,0,1-5.144,1.327,10.135,10.135,0,0,1-5.144-1.327,9.684,9.684,0,0,1-3.634-3.653,10.234,10.234,0,0,1-1.327-5.163,10.37,10.37,0,0,1,1.289-5.142,9.577,9.577,0,0,1,8.526-4.963,9.393,9.393,0,0,1,4.324,1,8.988,8.988,0,0,1,3.236,2.746V4.306A1.367,1.367,0,0,1,33.956,2.89a1.321,1.321,0,0,1,1,.4,1.418,1.418,0,0,1,.382,1.018v8.144a1.087,1.087,0,0,1,.035.325m-6.36,15.141a7.219,7.219,0,0,0,2.634-2.727,7.816,7.816,0,0,0,.964-3.872,8.856,8.856,0,0,0-.035-.907.374.374,0,0,1-.038-.181,7.3,7.3,0,0,0-2.38-4.654,7.055,7.055,0,0,0-4.89-1.817,7.367,7.367,0,0,0-3.761.98,7.062,7.062,0,0,0-2.653,2.708,7.8,7.8,0,0,0-.964,3.872,7.788,7.788,0,0,0,.964,3.872,7.169,7.169,0,0,0,2.653,2.727,7.25,7.25,0,0,0,3.761,1,7.164,7.164,0,0,0,3.745-1" transform="translate(25.892 4.935)" fill="#2e2e2d"/>
      <path id="Path_5063" data-name="Path 5063" d="M25.485,32.023A10.525,10.525,0,0,1,20.17,30.65a10.029,10.029,0,0,1-3.764-3.78,10.622,10.622,0,0,1-1.37-5.334,10.743,10.743,0,0,1,1.332-5.31,9.91,9.91,0,0,1,8.824-5.139,9.783,9.783,0,0,1,4.484,1.037,9.444,9.444,0,0,1,2.735,2.082V4.525a1.713,1.713,0,0,1,1.763-1.763,1.661,1.661,0,0,1,1.248.506A1.767,1.767,0,0,1,35.9,4.525v8.1a1.635,1.635,0,0,1,.035.374v8.542a10.63,10.63,0,0,1-1.37,5.334A10.048,10.048,0,0,1,30.8,30.65a10.532,10.532,0,0,1-5.315,1.373m-.292-20.247a9.231,9.231,0,0,0-8.223,4.787,10.069,10.069,0,0,0-1.246,4.974A9.929,9.929,0,0,0,17,26.527a9.36,9.36,0,0,0,3.509,3.528,10.308,10.308,0,0,0,9.942,0,9.372,9.372,0,0,0,3.509-3.525,9.947,9.947,0,0,0,1.281-4.993V12.994a.882.882,0,0,0-.019-.222l-.016-.106V4.525a1.069,1.069,0,0,0-.29-.78.969.969,0,0,0-.747-.292A1.026,1.026,0,0,0,33.1,4.525V16.232l-.623-.853a8.709,8.709,0,0,0-3.114-2.64,9.088,9.088,0,0,0-4.17-.964m.292,17.7a7.577,7.577,0,0,1-6.718-3.9,8.6,8.6,0,0,1,0-8.079,7.413,7.413,0,0,1,2.783-2.838,7.712,7.712,0,0,1,3.934-1.026,7.415,7.415,0,0,1,5.12,1.9A7.675,7.675,0,0,1,33.1,20.4l0,.043,0,.035.03.054,0,.051a8.956,8.956,0,0,1,.038.95,8.175,8.175,0,0,1-1.007,4.04,7.509,7.509,0,0,1-6.68,3.9m0-15.157a7.058,7.058,0,0,0-3.59.934,6.729,6.729,0,0,0-2.523,2.578,7.912,7.912,0,0,0,0,7.408,6.823,6.823,0,0,0,2.526,2.6,6.949,6.949,0,0,0,3.588.953,6.852,6.852,0,0,0,3.569-.95,6.928,6.928,0,0,0,2.51-2.6,7.515,7.515,0,0,0,.921-3.7c0-.36-.011-.636-.03-.82a.768.768,0,0,1-.043-.246,6.973,6.973,0,0,0-2.269-4.419,6.736,6.736,0,0,0-4.657-1.73" transform="translate(25.676 4.716)" fill="#2e2e2d"/>
      <path id="Path_5064" data-name="Path 5064" d="M29.58,24.9a9.419,9.419,0,0,1-3.617-3.617,10.319,10.319,0,0,1-1.308-5.18,10.427,10.427,0,0,1,1.308-5.2A9.388,9.388,0,0,1,29.58,7.274a10.854,10.854,0,0,1,10.34,0,9.573,9.573,0,0,1,3.617,3.634,10.3,10.3,0,0,1,1.327,5.2,10.319,10.319,0,0,1-1.308,5.18A9.456,9.456,0,0,1,39.939,24.9a10.911,10.911,0,0,1-10.359,0m8.959-2.218a6.974,6.974,0,0,0,2.618-2.708,7.951,7.951,0,0,0,.945-3.872,8.021,8.021,0,0,0-.945-3.907A6.956,6.956,0,0,0,38.54,9.492a7.728,7.728,0,0,0-7.543,0A7.025,7.025,0,0,0,28.343,12.2a7.885,7.885,0,0,0-.964,3.907,7.816,7.816,0,0,0,.964,3.872A7.043,7.043,0,0,0,31,22.686a7.747,7.747,0,0,0,7.543,0" transform="translate(42.101 10.184)" fill="#2e2e2d"/>
      <path id="Path_5065" data-name="Path 5065" d="M34.976,26.772a10.7,10.7,0,0,1-5.35-1.354,9.808,9.808,0,0,1-3.747-3.747,10.708,10.708,0,0,1-1.351-5.35,10.813,10.813,0,0,1,1.351-5.366,9.757,9.757,0,0,1,3.747-3.764,11.212,11.212,0,0,1,10.682,0,9.944,9.944,0,0,1,3.747,3.764,10.686,10.686,0,0,1,1.37,5.366,10.689,10.689,0,0,1-1.354,5.35,9.782,9.782,0,0,1-3.745,3.747,10.7,10.7,0,0,1-5.35,1.354M29.967,24.82a10.574,10.574,0,0,0,10.018,0,9.142,9.142,0,0,0,3.487-3.487,10.024,10.024,0,0,0,1.264-5.012A10,10,0,0,0,43.456,11.3a9.274,9.274,0,0,0-3.49-3.506,9.914,9.914,0,0,0-4.99-1.264,10.014,10.014,0,0,0-5.009,1.264,9.091,9.091,0,0,0-3.487,3.5,10.122,10.122,0,0,0-1.264,5.028,10.017,10.017,0,0,0,1.264,5.012,9.142,9.142,0,0,0,3.487,3.487m5.009-.593A7.714,7.714,0,0,1,31.042,23.2a7.4,7.4,0,0,1-2.783-2.838,8.175,8.175,0,0,1-1.007-4.04,8.251,8.251,0,0,1,1.007-4.075,7.413,7.413,0,0,1,2.783-2.838,8.1,8.1,0,0,1,7.89,0,7.356,7.356,0,0,1,2.743,2.84,8.384,8.384,0,0,1,.988,4.072,8.3,8.3,0,0,1-.988,4.037,7.319,7.319,0,0,1-2.743,2.84,7.708,7.708,0,0,1-3.956,1.029m0-15.157a7.058,7.058,0,0,0-3.59.934,6.729,6.729,0,0,0-2.523,2.578,7.563,7.563,0,0,0-.921,3.739,7.479,7.479,0,0,0,.921,3.7A6.71,6.71,0,0,0,31.385,22.6a7.389,7.389,0,0,0,7.2,0,6.641,6.641,0,0,0,2.488-2.578,7.627,7.627,0,0,0,.9-3.707,7.72,7.72,0,0,0-.9-3.742A6.671,6.671,0,0,0,38.582,10a7.019,7.019,0,0,0-3.607-.934" transform="translate(41.882 9.967)" fill="#2e2e2d"/>
      <path id="Path_5066" data-name="Path 5066" d="M39.2,29.517a7.047,7.047,0,0,1-1.4-4.524V4.271a1.314,1.314,0,0,1,.4-1,1.363,1.363,0,0,1,.98-.382,1.314,1.314,0,0,1,1.384,1.381V24.992a4.613,4.613,0,0,0,.634,2.542,1.882,1.882,0,0,0,1.619.983h.907a1.094,1.094,0,0,1,.875.382,1.488,1.488,0,0,1,.325,1,1.239,1.239,0,0,1-.452,1,1.78,1.78,0,0,1-1.183.382h-.471A4.408,4.408,0,0,1,39.2,29.517" transform="translate(64.542 4.935)" fill="#4abadf"/>
      <path id="Path_5067" data-name="Path 5067" d="M43.395,31.559h-.471a4.59,4.59,0,0,1-3.753-1.828A7.258,7.258,0,0,1,37.733,25.1V4.377a1.493,1.493,0,0,1,.455-1.124,1.54,1.54,0,0,1,1.1-.428,1.481,1.481,0,0,1,1.554,1.551V25.1a4.434,4.434,0,0,0,.609,2.45,1.7,1.7,0,0,0,1.473.9h.907a1.261,1.261,0,0,1,1,.444A1.654,1.654,0,0,1,45.2,30a1.41,1.41,0,0,1-.517,1.132,1.941,1.941,0,0,1-1.292.422M39.287,3.17a1.2,1.2,0,0,0-.864.333,1.144,1.144,0,0,0-.347.875V25.1a6.924,6.924,0,0,0,1.365,4.419,4.258,4.258,0,0,0,3.482,1.7h.471a1.617,1.617,0,0,0,1.072-.341,1.073,1.073,0,0,0,.39-.869,1.325,1.325,0,0,0-.284-.888.915.915,0,0,0-.742-.319h-.907a2.048,2.048,0,0,1-1.763-1.061A4.772,4.772,0,0,1,40.5,25.1V4.377a1.14,1.14,0,0,0-1.21-1.208" transform="translate(64.433 4.825)" fill="#4abadf"/>
      <path id="Path_5068" data-name="Path 5068" d="M43.609,32.108h-.474a4.919,4.919,0,0,1-4.018-1.952,7.593,7.593,0,0,1-1.508-4.844V4.591a1.8,1.8,0,0,1,.56-1.367,1.983,1.983,0,0,1,2.691.008,1.838,1.838,0,0,1,.531,1.359V25.312a4.153,4.153,0,0,0,.552,2.266,1.378,1.378,0,0,0,1.191.747h.91a1.611,1.611,0,0,1,1.259.563,1.967,1.967,0,0,1,.452,1.329,1.767,1.767,0,0,1-.636,1.392,2.3,2.3,0,0,1-1.511.5M39.5,3.722a.849.849,0,0,0-.631.241.809.809,0,0,0-.241.628V25.312a6.6,6.6,0,0,0,1.286,4.2,3.947,3.947,0,0,0,3.219,1.57h.474a1.279,1.279,0,0,0,.853-.26.737.737,0,0,0,.271-.609,1.008,1.008,0,0,0-.206-.669.576.576,0,0,0-.482-.2h-.91a2.387,2.387,0,0,1-2.044-1.216,5.086,5.086,0,0,1-.72-2.821V4.591a.8.8,0,0,0-.869-.869" transform="translate(64.221 4.612)" fill="#4abadf"/>
      <path id="Path_5069" data-name="Path 5069" d="M55.5,7.218a8.527,8.527,0,0,1,3.217,3.471,10.851,10.851,0,0,1,1.145,5.052,1.211,1.211,0,0,1-.363.926,1.306,1.306,0,0,1-.942.347H43.874A7.147,7.147,0,0,0,51.288,23.7a8.076,8.076,0,0,0,2.635-.455A6.357,6.357,0,0,0,56.051,22.1a1.6,1.6,0,0,1,.983-.363,1.334,1.334,0,0,1,.8.292,1.3,1.3,0,0,1,.474.98,1.1,1.1,0,0,1-.4.837,9.892,9.892,0,0,1-3.049,1.69,10.552,10.552,0,0,1-8.762-.617,9.192,9.192,0,0,1-3.582-3.6A10.5,10.5,0,0,1,41.221,16.1a11.085,11.085,0,0,1,1.216-5.253,8.995,8.995,0,0,1,3.382-3.6,9.434,9.434,0,0,1,4.925-1.289A9,9,0,0,1,55.5,7.218M46.165,10.18a7.384,7.384,0,0,0-2.218,4.508h13.3a7.111,7.111,0,0,0-2.036-4.508,6.116,6.116,0,0,0-4.47-1.708,6.406,6.406,0,0,0-4.579,1.708" transform="translate(70.389 10.184)" fill="#4abadf"/>
      <path id="Path_5070" data-name="Path 5070" d="M51.4,26.491a10.61,10.61,0,0,1-5.283-1.313,9.412,9.412,0,0,1-3.647-3.663,10.747,10.747,0,0,1-1.31-5.3,11.27,11.27,0,0,1,1.237-5.331,9.187,9.187,0,0,1,3.444-3.669A9.643,9.643,0,0,1,50.853,5.9,9.236,9.236,0,0,1,55.7,7.178a8.772,8.772,0,0,1,3.282,3.539,11.1,11.1,0,0,1,1.164,5.134,1.391,1.391,0,0,1-.417,1.051,1.487,1.487,0,0,1-1.064.393H44.173a7.058,7.058,0,0,0,2.25,4.535A7.144,7.144,0,0,0,51.4,23.638a7.958,7.958,0,0,0,2.58-.444,6.227,6.227,0,0,0,2.069-1.113,1.553,1.553,0,0,1,2-.081,1.494,1.494,0,0,1,.544,1.121,1.277,1.277,0,0,1-.458.964,10.152,10.152,0,0,1-3.111,1.725,10.653,10.653,0,0,1-3.62.682M50.853,6.244a9.282,9.282,0,0,0-4.838,1.267A8.839,8.839,0,0,0,42.7,11.042a10.978,10.978,0,0,0-1.2,5.172,10.363,10.363,0,0,0,1.267,5.131,9.054,9.054,0,0,0,3.514,3.533,10.352,10.352,0,0,0,8.618.607,9.717,9.717,0,0,0,3-1.66.923.923,0,0,0,.338-.7,1.135,1.135,0,0,0-.417-.856,1.219,1.219,0,0,0-1.56.084,6.551,6.551,0,0,1-2.174,1.17,8.264,8.264,0,0,1-2.691.463,7.318,7.318,0,0,1-7.587-6.842l-.019-.19H58.667a1.137,1.137,0,0,0,.826-.3,1.044,1.044,0,0,0,.311-.8,10.741,10.741,0,0,0-1.126-4.974,8.433,8.433,0,0,0-3.154-3.4,8.888,8.888,0,0,0-4.671-1.229m6.7,8.724H43.856l.027-.195a7.6,7.6,0,0,1,2.269-4.608,6.616,6.616,0,0,1,4.7-1.757,6.321,6.321,0,0,1,4.589,1.757,7.308,7.308,0,0,1,2.088,4.614Zm-13.294-.344h12.91A6.9,6.9,0,0,0,55.2,10.411a5.988,5.988,0,0,0-4.348-1.66,6.284,6.284,0,0,0-4.462,1.662,7.22,7.22,0,0,0-2.136,4.21" transform="translate(70.28 10.075)" fill="#4abadf"/>
      <path id="Path_5071" data-name="Path 5071" d="M51.611,27.043a10.949,10.949,0,0,1-5.448-1.354,9.734,9.734,0,0,1-3.777-3.8,11.026,11.026,0,0,1-1.354-5.464,11.625,11.625,0,0,1,1.275-5.491,9.544,9.544,0,0,1,3.569-3.8,9.987,9.987,0,0,1,5.188-1.365A9.553,9.553,0,0,1,56.092,7.1,9.088,9.088,0,0,1,59.5,10.779a11.437,11.437,0,0,1,1.2,5.288,1.719,1.719,0,0,1-.525,1.3,1.812,1.812,0,0,1-1.294.485h-14.1a6.663,6.663,0,0,0,2.088,3.945,6.809,6.809,0,0,0,4.746,1.722,7.533,7.533,0,0,0,2.467-.428,5.918,5.918,0,0,0,1.96-1.045,1.88,1.88,0,0,1,2.415-.1,1.829,1.829,0,0,1,.685,1.389,1.616,1.616,0,0,1-.569,1.216,10.407,10.407,0,0,1-3.222,1.792,11,11,0,0,1-3.736.7M51.064,6.8A8.958,8.958,0,0,0,46.4,8.017a8.488,8.488,0,0,0-3.19,3.4,10.619,10.619,0,0,0-1.159,5.014A10.044,10.044,0,0,0,43.277,21.4a8.7,8.7,0,0,0,3.387,3.4,9.9,9.9,0,0,0,4.947,1.227A10.012,10.012,0,0,0,55,25.383a9.362,9.362,0,0,0,2.9-1.6.574.574,0,0,0,.219-.447.8.8,0,0,0-.311-.6.872.872,0,0,0-1.121.1,6.8,6.8,0,0,1-2.277,1.224,8.577,8.577,0,0,1-2.8.485,7.657,7.657,0,0,1-7.922-7.151l-.057-.56H58.881a.81.81,0,0,0,.6-.206.728.728,0,0,0,.2-.555,10.386,10.386,0,0,0-1.091-4.82,8.049,8.049,0,0,0-3.024-3.268,8.545,8.545,0,0,0-4.5-1.181m7.07,8.724H43.677l.084-.585a7.934,7.934,0,0,1,2.375-4.806,6.949,6.949,0,0,1,4.928-1.847,6.647,6.647,0,0,1,4.828,1.855,7.63,7.63,0,0,1,2.188,4.817ZM44.874,14.5H56.988a6.433,6.433,0,0,0-1.809-3.631,5.659,5.659,0,0,0-4.116-1.565,5.937,5.937,0,0,0-4.227,1.57A6.716,6.716,0,0,0,44.874,14.5" transform="translate(70.066 9.861)" fill="#4abadf"/>
      <path id="Path_5072" data-name="Path 5072" d="M64.5,7.253a9.366,9.366,0,0,1,3.6,3.6A10.472,10.472,0,0,1,69.406,16.1V23.52a10.812,10.812,0,0,1-1.292,5.272,9.643,9.643,0,0,1-3.579,3.726,9.917,9.917,0,0,1-5.161,1.362,11.328,11.328,0,0,1-4.982-1.053A10.35,10.35,0,0,1,50.72,29.88a1.215,1.215,0,0,1-.328-.834A1.174,1.174,0,0,1,50.9,28.1a1.368,1.368,0,0,1,.8-.255,1.472,1.472,0,0,1,.655.162,1.378,1.378,0,0,1,.509.417,7.335,7.335,0,0,0,2.762,2.147,9.036,9.036,0,0,0,3.78.761,6.938,6.938,0,0,0,6.29-3.8,8.754,8.754,0,0,0,.945-4.124V21.776a8.073,8.073,0,0,1-3.092,3.252,8.751,8.751,0,0,1-4.543,1.181A9.939,9.939,0,0,1,53.94,24.92a9.072,9.072,0,0,1-3.49-3.6A10.743,10.743,0,0,1,49.2,16.1,10.472,10.472,0,0,1,50.5,10.851a9.3,9.3,0,0,1,3.617-3.6,11.085,11.085,0,0,1,10.376,0M63.081,22.7A6.823,6.823,0,0,0,65.7,20.011a8.021,8.021,0,0,0,.945-3.907A8.021,8.021,0,0,0,65.7,12.2a6.974,6.974,0,0,0-2.618-2.708,7.318,7.318,0,0,0-3.78-.98,7.394,7.394,0,0,0-3.818.98A6.93,6.93,0,0,0,52.868,12.2,7.993,7.993,0,0,0,51.92,16.1a7.993,7.993,0,0,0,.948,3.907A6.781,6.781,0,0,0,55.483,22.7a7.518,7.518,0,0,0,3.818.964,7.441,7.441,0,0,0,3.78-.964" transform="translate(84.007 10.184)" fill="#4abadf"/>
      <path id="Path_5073" data-name="Path 5073" d="M59.48,34.162a11.494,11.494,0,0,1-5.052-1.072A10.61,10.61,0,0,1,50.694,30.1a1.375,1.375,0,0,1-.363-.942,1.345,1.345,0,0,1,.574-1.083,1.642,1.642,0,0,1,2.212.363,7.188,7.188,0,0,0,2.689,2.09,8.907,8.907,0,0,0,3.709.747,6.771,6.771,0,0,0,6.141-3.707,8.674,8.674,0,0,0,.923-4.045V22.53a8.238,8.238,0,0,1-2.832,2.756,8.973,8.973,0,0,1-4.633,1.2,10.15,10.15,0,0,1-5.153-1.313,9.246,9.246,0,0,1-3.555-3.666,10.977,10.977,0,0,1-1.275-5.3,10.677,10.677,0,0,1,1.332-5.337,9.5,9.5,0,0,1,3.682-3.663,11.238,11.238,0,0,1,10.543,0,9.507,9.507,0,0,1,3.663,3.663,10.692,10.692,0,0,1,1.332,5.337v7.416a10.992,10.992,0,0,1-1.313,5.353,9.834,9.834,0,0,1-3.639,3.791,10.139,10.139,0,0,1-5.253,1.389M51.81,28.127a1.2,1.2,0,0,0-.7.225,1.007,1.007,0,0,0-.436.8,1.05,1.05,0,0,0,.284.72,10.311,10.311,0,0,0,3.617,2.905,11.2,11.2,0,0,0,4.906,1.034,9.775,9.775,0,0,0,5.074-1.338,9.464,9.464,0,0,0,3.517-3.661,10.705,10.705,0,0,0,1.273-5.188V16.213a10.316,10.316,0,0,0-1.289-5.166,9.163,9.163,0,0,0-3.536-3.533,10.886,10.886,0,0,0-10.2,0,9.168,9.168,0,0,0-3.552,3.533,10.309,10.309,0,0,0-1.289,5.166,10.593,10.593,0,0,0,1.237,5.134,8.917,8.917,0,0,0,3.422,3.533,9.849,9.849,0,0,0,4.982,1.267,8.611,8.611,0,0,0,4.457-1.159A7.953,7.953,0,0,0,66.6,21.8l.322-.617v2.334a8.971,8.971,0,0,1-.961,4.2,7.112,7.112,0,0,1-6.444,3.891,9.206,9.206,0,0,1-3.847-.78,7.508,7.508,0,0,1-2.829-2.193,1.169,1.169,0,0,0-.452-.371,1.257,1.257,0,0,0-.577-.146m7.6-4.181a7.7,7.7,0,0,1-3.9-.986A7.025,7.025,0,0,1,52.822,20.2a8.2,8.2,0,0,1-.964-3.991,8.21,8.21,0,0,1,.964-3.991A7.121,7.121,0,0,1,55.506,9.45a7.6,7.6,0,0,1,3.9-1,7.514,7.514,0,0,1,3.864,1,7.147,7.147,0,0,1,2.686,2.773,8.239,8.239,0,0,1,.961,3.991A8.239,8.239,0,0,1,65.96,20.2a7.014,7.014,0,0,1-2.686,2.756,7.616,7.616,0,0,1-3.864.986m0-15.157a7.272,7.272,0,0,0-3.734.958,6.831,6.831,0,0,0-2.551,2.64,7.888,7.888,0,0,0-.926,3.826,7.888,7.888,0,0,0,.926,3.826,6.7,6.7,0,0,0,2.551,2.624,7.808,7.808,0,0,0,7.427,0,6.685,6.685,0,0,0,2.553-2.624,7.917,7.917,0,0,0,.923-3.826,7.924,7.924,0,0,0-.923-3.826A6.857,6.857,0,0,0,63.1,9.748a7.2,7.2,0,0,0-3.693-.958" transform="translate(83.898 10.075)" fill="#4abadf"/>
      <path id="Path_5074" data-name="Path 5074" d="M59.694,34.714a11.874,11.874,0,0,1-5.2-1.107,10.869,10.869,0,0,1-3.848-3.087,1.7,1.7,0,0,1-.439-1.153,1.679,1.679,0,0,1,.707-1.346,1.872,1.872,0,0,1,2-.144,1.8,1.8,0,0,1,.693.577,6.916,6.916,0,0,0,2.561,1.979,8.621,8.621,0,0,0,3.569.712,6.429,6.429,0,0,0,5.835-3.523,8.228,8.228,0,0,0,.885-3.826,8.609,8.609,0,0,1-2.318,2,9.329,9.329,0,0,1-4.8,1.251,10.535,10.535,0,0,1-5.326-1.357,9.666,9.666,0,0,1-3.685-3.8,11.293,11.293,0,0,1-1.313-5.459,11.007,11.007,0,0,1,1.375-5.5,9.832,9.832,0,0,1,3.807-3.791,11.59,11.59,0,0,1,10.882,0,9.9,9.9,0,0,1,3.791,3.791,11.022,11.022,0,0,1,1.375,5.5v7.416a11.355,11.355,0,0,1-1.354,5.513,10.148,10.148,0,0,1-3.769,3.921,10.433,10.433,0,0,1-5.421,1.438m-7.671-6.035a.861.861,0,0,0-.506.162.64.64,0,0,0-.292.525.7.7,0,0,0,.2.5,10.014,10.014,0,0,0,3.517,2.829,10.859,10.859,0,0,0,4.755,1A9.456,9.456,0,0,0,64.6,32.4a9.2,9.2,0,0,0,3.393-3.531,10.343,10.343,0,0,0,1.227-5.025V16.427a10.044,10.044,0,0,0-1.24-5A8.936,8.936,0,0,0,64.568,8.02a10.566,10.566,0,0,0-9.877,0,8.889,8.889,0,0,0-3.422,3.4,10,10,0,0,0-1.24,5A10.333,10.333,0,0,0,51.216,21.4a8.619,8.619,0,0,0,3.3,3.4,9.487,9.487,0,0,0,4.817,1.224,8.29,8.29,0,0,0,4.286-1.113,7.626,7.626,0,0,0,2.9-3.049l.958-1.836v3.709a9.257,9.257,0,0,1-1,4.359,7.438,7.438,0,0,1-6.739,4.075,9.475,9.475,0,0,1-3.994-.812,7.817,7.817,0,0,1-2.949-2.291.929.929,0,0,0-.338-.279.972.972,0,0,0-.428-.108m7.6-4.181a8.064,8.064,0,0,1-4.072-1.032,7.334,7.334,0,0,1-2.808-2.889,8.494,8.494,0,0,1-1.01-4.151,8.512,8.512,0,0,1,1.01-4.153,7.471,7.471,0,0,1,2.805-2.9,8.36,8.36,0,0,1,8.115,0,7.453,7.453,0,0,1,2.805,2.9,8.525,8.525,0,0,1,1.007,4.153,8.525,8.525,0,0,1-1.007,4.153,7.343,7.343,0,0,1-2.808,2.886A7.983,7.983,0,0,1,59.621,24.5m0-15.157a6.918,6.918,0,0,0-3.555.91,6.521,6.521,0,0,0-2.431,2.515,7.523,7.523,0,0,0-.88,3.661,7.527,7.527,0,0,0,.88,3.663,6.353,6.353,0,0,0,2.426,2.491,7.456,7.456,0,0,0,7.089,0,6.346,6.346,0,0,0,2.423-2.491,7.527,7.527,0,0,0,.88-3.663,7.523,7.523,0,0,0-.88-3.661,6.514,6.514,0,0,0-2.429-2.515,6.862,6.862,0,0,0-3.523-.91" transform="translate(83.685 9.861)" fill="#4abadf"/>
      <path id="Path_5075" data-name="Path 5075" d="M73.533,7.291a9.653,9.653,0,0,1,3.634,3.655,10.217,10.217,0,0,1,1.327,5.161v8.542a1.333,1.333,0,0,1-.4.98,1.377,1.377,0,0,1-1.018.4,1.409,1.409,0,0,1-1.018-.382,1.314,1.314,0,0,1-.4-1V22.467a8.961,8.961,0,0,1-3.236,2.746,9.393,9.393,0,0,1-4.324,1,9.582,9.582,0,0,1-8.526-4.96,10.38,10.38,0,0,1-1.289-5.144,10.217,10.217,0,0,1,1.327-5.161,9.672,9.672,0,0,1,3.634-3.655,10.637,10.637,0,0,1,10.289,0m-1.4,15.4a7.091,7.091,0,0,0,2.635-2.708,7.816,7.816,0,0,0,.964-3.872,7.816,7.816,0,0,0-.964-3.872,7.239,7.239,0,0,0-2.635-2.727,7.164,7.164,0,0,0-3.745-1,7.222,7.222,0,0,0-6.414,3.726,7.788,7.788,0,0,0-.964,3.872,7.788,7.788,0,0,0,.964,3.872,7.043,7.043,0,0,0,2.653,2.708,7.34,7.34,0,0,0,3.761.98,7.253,7.253,0,0,0,3.745-.98" transform="translate(99.526 10.184)" fill="#4abadf"/>
      <path id="Path_5076" data-name="Path 5076" d="M68.208,26.491a9.745,9.745,0,0,1-8.675-5.05,10.565,10.565,0,0,1-1.313-5.228,10.446,10.446,0,0,1,1.351-5.247,9.869,9.869,0,0,1,3.7-3.718,10.811,10.811,0,0,1,10.457,0,9.869,9.869,0,0,1,3.7,3.718,10.446,10.446,0,0,1,1.351,5.247v8.542a1.5,1.5,0,0,1-.452,1.1,1.538,1.538,0,0,1-1.137.452,1.588,1.588,0,0,1-1.137-.431,1.489,1.489,0,0,1-.455-1.124V23.08a9.175,9.175,0,0,1-2.984,2.394,9.621,9.621,0,0,1-4.4,1.018M68.5,6.244A10,10,0,0,0,63.44,7.549a9.525,9.525,0,0,0-3.571,3.588,10.124,10.124,0,0,0-1.305,5.077,10.235,10.235,0,0,0,1.27,5.061,9.4,9.4,0,0,0,8.375,4.874,9.228,9.228,0,0,0,4.246-.983,8.845,8.845,0,0,0,3.176-2.691l.311-.428v2.71a1.135,1.135,0,0,0,.347.875,1.233,1.233,0,0,0,.9.336,1.193,1.193,0,0,0,.894-.352,1.152,1.152,0,0,0,.352-.858V16.213a10.1,10.1,0,0,0-1.305-5.077,9.544,9.544,0,0,0-3.571-3.588A10.012,10.012,0,0,0,68.5,6.244m0,17.7a7.547,7.547,0,0,1-3.848-1,7.209,7.209,0,0,1-2.718-2.773,8,8,0,0,1-.986-3.956,8,8,0,0,1,.986-3.956,7.378,7.378,0,0,1,2.716-2.789A7.453,7.453,0,0,1,68.5,8.445a7.338,7.338,0,0,1,6.531,3.812,8.026,8.026,0,0,1,.983,3.956,8.026,8.026,0,0,1-.983,3.956,7.3,7.3,0,0,1-2.7,2.773,7.459,7.459,0,0,1-3.831,1m0-15.157a7.051,7.051,0,0,0-6.265,3.636,7.669,7.669,0,0,0-.942,3.788A7.662,7.662,0,0,0,62.233,20a6.9,6.9,0,0,0,2.588,2.643A7.211,7.211,0,0,0,68.5,23.6a7.114,7.114,0,0,0,3.658-.958A6.951,6.951,0,0,0,74.728,20a7.69,7.69,0,0,0,.94-3.788,7.7,7.7,0,0,0-.94-3.788A7,7,0,0,0,68.5,8.789" transform="translate(99.417 10.075)" fill="#4abadf"/>
      <path id="Path_5077" data-name="Path 5077" d="M68.422,27.043a10.095,10.095,0,0,1-8.973-5.22,10.944,10.944,0,0,1-1.354-5.4,10.778,10.778,0,0,1,1.4-5.415,10.186,10.186,0,0,1,3.82-3.842,11.149,11.149,0,0,1,10.8,0,10.232,10.232,0,0,1,3.823,3.842,10.791,10.791,0,0,1,1.394,5.415v8.543a1.843,1.843,0,0,1-.547,1.343,1.89,1.89,0,0,1-1.381.547,1.91,1.91,0,0,1-1.373-.523,1.8,1.8,0,0,1-.558-1.367v-.793a9.568,9.568,0,0,1-2.491,1.811,9.912,9.912,0,0,1-4.557,1.056M68.712,6.8a9.672,9.672,0,0,0-4.89,1.259,9.175,9.175,0,0,0-3.444,3.463,9.764,9.764,0,0,0-1.259,4.909,9.907,9.907,0,0,0,1.224,4.9,9.055,9.055,0,0,0,8.079,4.7,8.956,8.956,0,0,0,4.094-.945,8.532,8.532,0,0,0,3.054-2.588l.923-1.27v3.75a.8.8,0,0,0,.241.628.99.99,0,0,0,1.321-.011.807.807,0,0,0,.252-.617V16.427a9.779,9.779,0,0,0-1.259-4.909A9.22,9.22,0,0,0,73.6,8.055,9.672,9.672,0,0,0,68.712,6.8m0,17.7A7.879,7.879,0,0,1,64.7,23.448a7.517,7.517,0,0,1-2.846-2.9,8.337,8.337,0,0,1-1.029-4.118,8.37,8.37,0,0,1,1.029-4.121,7.828,7.828,0,0,1,13.687,0,8.375,8.375,0,0,1,1.026,4.121,8.35,8.35,0,0,1-1.026,4.118,7.582,7.582,0,0,1-2.821,2.9,7.794,7.794,0,0,1-4,1.053m0-15.157a6.773,6.773,0,0,0-3.5.929A6.689,6.689,0,0,0,62.744,12.8a7.323,7.323,0,0,0-.9,3.623,7.316,7.316,0,0,0,.9,3.623,6.513,6.513,0,0,0,2.461,2.513,6.844,6.844,0,0,0,3.506.915,6.755,6.755,0,0,0,3.485-.912,6.562,6.562,0,0,0,2.448-2.515,7.321,7.321,0,0,0,.9-3.623,7.329,7.329,0,0,0-.9-3.623,6.649,6.649,0,0,0-5.932-3.463" transform="translate(99.203 9.861)" fill="#4abadf"/>
      <path id="Path_5078" data-name="Path 5078" d="M68.893,29.517a7.047,7.047,0,0,1-1.4-4.524V4.271a1.314,1.314,0,0,1,.4-1,1.363,1.363,0,0,1,.98-.382,1.314,1.314,0,0,1,1.384,1.381V24.992a4.613,4.613,0,0,0,.634,2.542,1.882,1.882,0,0,0,1.619.983h.907a1.094,1.094,0,0,1,.875.382,1.488,1.488,0,0,1,.325,1,1.239,1.239,0,0,1-.452,1,1.78,1.78,0,0,1-1.183.382H72.51a4.408,4.408,0,0,1-3.617-1.763" transform="translate(115.251 4.935)" fill="#4abadf"/>
      <path id="Path_5079" data-name="Path 5079" d="M73.092,31.559H72.62a4.587,4.587,0,0,1-3.753-1.828A7.258,7.258,0,0,1,67.43,25.1V4.377a1.493,1.493,0,0,1,.455-1.124,1.54,1.54,0,0,1,1.1-.428,1.481,1.481,0,0,1,1.554,1.551V25.1a4.457,4.457,0,0,0,.607,2.45,1.711,1.711,0,0,0,1.476.9h.907a1.261,1.261,0,0,1,1,.444A1.654,1.654,0,0,1,74.9,30a1.41,1.41,0,0,1-.517,1.132,1.941,1.941,0,0,1-1.292.422M68.984,3.17a1.184,1.184,0,0,0-.861.333,1.137,1.137,0,0,0-.349.875V25.1a6.924,6.924,0,0,0,1.365,4.419,4.258,4.258,0,0,0,3.482,1.7h.471a1.619,1.619,0,0,0,1.069-.341A1.067,1.067,0,0,0,74.554,30a1.325,1.325,0,0,0-.284-.888.919.919,0,0,0-.742-.319H72.62a2.048,2.048,0,0,1-1.763-1.061,4.772,4.772,0,0,1-.663-2.637V4.377a1.14,1.14,0,0,0-1.21-1.208" transform="translate(115.144 4.825)" fill="#4abadf"/>
      <path id="Path_5080" data-name="Path 5080" d="M73.305,32.108h-.474a4.919,4.919,0,0,1-4.018-1.952,7.593,7.593,0,0,1-1.508-4.844V4.591a1.808,1.808,0,0,1,.558-1.367A1.872,1.872,0,0,1,69.195,2.7a1.817,1.817,0,0,1,1.893,1.89V25.312a4.141,4.141,0,0,0,.552,2.266,1.378,1.378,0,0,0,1.191.747h.91A1.611,1.611,0,0,1,75,28.889a1.975,1.975,0,0,1,.449,1.329,1.769,1.769,0,0,1-.634,1.392,2.3,2.3,0,0,1-1.511.5M69.195,3.722a.849.849,0,0,0-.628.241.809.809,0,0,0-.241.628V25.312a6.589,6.589,0,0,0,1.286,4.2,3.94,3.94,0,0,0,3.219,1.57h.474a1.281,1.281,0,0,0,.85-.26.732.732,0,0,0,.273-.609,1.007,1.007,0,0,0-.206-.669.576.576,0,0,0-.482-.2h-.91a2.387,2.387,0,0,1-2.044-1.216,5.086,5.086,0,0,1-.72-2.821V4.591a.8.8,0,0,0-.872-.869" transform="translate(114.93 4.612)" fill="#4abadf"/>
      <path id="Path_5081" data-name="Path 5081" d="M76.125,14.04a1.791,1.791,0,1,1-1.792-1.792,1.793,1.793,0,0,1,1.792,1.792" transform="translate(123.875 20.914)" fill="#4abadf"/>
    </g>
  </g>
</svg>
