<svg xmlns="http://www.w3.org/2000/svg" width="24.381" height="31.575" viewBox="0 0 24.381 31.575">
  <g id="Group_345" data-name="Group 345" transform="translate(-1634.937 -618.444)">
    <path id="Path_544" data-name="Path 544" d="M1641.074,646.609V628.073h-3.41v18.536a2.727,2.727,0,0,0,2.728,2.728h3.41a2.727,2.727,0,0,1-2.728-2.728Zm0,0" fill="#d4e1f4"/>
    <path id="Path_545" data-name="Path 545" d="M1646.012,619.951a.823.823,0,0,1,.825-.825h-3.41a.823.823,0,0,0-.825.825v2.673h3.41Zm0,0" fill="#d4e1f4"/>
    <g id="Group_344" data-name="Group 344">
      <path id="Path_546" data-name="Path 546" d="M1639.028,625.018a2.393,2.393,0,0,1,2.394-2.394h-3.41a2.394,2.394,0,1,0,0,4.788h3.41a2.393,2.393,0,0,1-2.394-2.394Zm0,0" fill="#d4e1f4"/>
      <path id="Path_547" data-name="Path 547" d="M1656.235,621.935h-3.9v-1.984a1.508,1.508,0,0,0-1.508-1.507h-7.406a1.507,1.507,0,0,0-1.507,1.507v1.991h-3.9a3.076,3.076,0,0,0-1.009,5.981.588.588,0,0,0-.021.15v18.536a3.412,3.412,0,0,0,3.41,3.41h13.469a3.411,3.411,0,0,0,3.41-3.41V628.073a.511.511,0,0,0-.02-.15,3.08,3.08,0,0,0-1.016-5.988Zm-12.951-1.984a.143.143,0,0,1,.143-.143h7.406a.143.143,0,0,1,.143.143v1.991h-7.692Zm12.616,26.658a2.051,2.051,0,0,1-2.045,2.046h-13.463a2.053,2.053,0,0,1-2.046-2.046V628.094h17.561v18.515Zm.335-19.879h-18.223a1.712,1.712,0,0,1,0-3.424h18.223a1.712,1.712,0,0,1,0,3.424Zm0,0" fill="#0066eb"/>
    </g>
    <path id="Path_548" data-name="Path 548" d="M1647.123,635.868a.684.684,0,0,0-.682.682v8.32a.682.682,0,1,0,1.364,0v-8.32a.684.684,0,0,0-.682-.682Zm0,0" fill="aqua"/>
    <path id="Path_549" data-name="Path 549" d="M1651.488,635.868a.684.684,0,0,0-.682.682v8.32a.682.682,0,0,0,1.364,0v-8.32a.684.684,0,0,0-.682-.682Zm0,0" fill="aqua"/>
    <path id="Path_550" data-name="Path 550" d="M1642.759,635.868a.683.683,0,0,0-.682.682v8.32a.682.682,0,0,0,1.364,0v-8.32a.685.685,0,0,0-.682-.682Zm0,0" fill="aqua"/>
  </g>
</svg>
