<svg xmlns="http://www.w3.org/2000/svg" xmlns:xlink="http://www.w3.org/1999/xlink" width="507.858" height="378.465" viewBox="0 0 507.858 378.465">
  <defs>
    <linearGradient id="linear-gradient" y1="0.5" x2="1" y2="0.5" gradientUnits="objectBoundingBox">
      <stop offset="0.016" stop-color="#eec0a8"/>
      <stop offset="1" stop-color="#e59393"/>
    </linearGradient>
    <linearGradient id="linear-gradient-2" x1="0.469" y1="0.598" x2="0.515" y2="0.397" xlink:href="#linear-gradient"/>
    <linearGradient id="linear-gradient-3" y1="0.5" x2="1" y2="0.5" gradientUnits="objectBoundingBox">
      <stop offset="0.002" stop-color="#0031bf"/>
      <stop offset="0.116" stop-color="#0436c1"/>
      <stop offset="0.267" stop-color="#0f47c6"/>
      <stop offset="0.439" stop-color="#2262d0"/>
      <stop offset="0.626" stop-color="#3c89dd"/>
      <stop offset="0.823" stop-color="#5db9ee"/>
      <stop offset="0.998" stop-color="#7febff"/>
    </linearGradient>
    <linearGradient id="linear-gradient-4" x1="0" y1="0.5" x2="1" y2="0.5" xlink:href="#linear-gradient"/>
    <linearGradient id="linear-gradient-5" x1="0.726" y1="0.351" x2="-0.001" y2="0.824" xlink:href="#linear-gradient"/>
    <linearGradient id="linear-gradient-6" y1="0.5" x2="1" y2="0.5" gradientUnits="objectBoundingBox">
      <stop offset="0" stop-color="#33369b"/>
      <stop offset="1" stop-color="#3a65a0"/>
    </linearGradient>
    <linearGradient id="linear-gradient-7" x1="1.086" y1="0.08" x2="-1.394" y2="1.861" xlink:href="#linear-gradient"/>
    <linearGradient id="linear-gradient-14" x1="1.016" y1="1" x2="0.198" y2="0.367" xlink:href="#linear-gradient"/>
    <linearGradient id="linear-gradient-15" x1="0.526" y1="0.682" x2="-1.794" y2="-2.435" xlink:href="#linear-gradient"/>
    <linearGradient id="linear-gradient-16" y1="0.5" x2="1" y2="0.5" gradientUnits="objectBoundingBox">
      <stop offset="0"/>
      <stop offset="1" stop-color="#7a99fb"/>
    </linearGradient>
  </defs>
  <g id="Group_334" data-name="Group 334" transform="translate(0 0)">
    <g id="Group_294" data-name="Group 294" transform="translate(0 0)">
      <rect id="Rectangle_246" data-name="Rectangle 246" width="507.858" height="0.254" transform="translate(0 332.592)" fill="#00fff2"/>
      <rect id="Rectangle_247" data-name="Rectangle 247" width="53.902" height="0.254" transform="translate(403.07 348.941)" fill="#00fff2"/>
      <rect id="Rectangle_248" data-name="Rectangle 248" width="59.587" height="0.254" transform="translate(276.839 345.758)" fill="#00fff2"/>
      <rect id="Rectangle_249" data-name="Rectangle 249" width="19.494" height="0.254" transform="translate(386.17 344.291)" fill="#00fff2"/>
      <rect id="Rectangle_250" data-name="Rectangle 250" width="43.872" height="0.254" transform="translate(102.052 341.216)" fill="#00fff2"/>
      <rect id="Rectangle_251" data-name="Rectangle 251" width="15.687" height="0.254" transform="translate(80.708 341.216)" fill="#00fff2"/>
      <rect id="Rectangle_252" data-name="Rectangle 252" width="55.047" height="0.254" transform="translate(133.538 345.504)" fill="#00fff2"/>
      <path id="Path_458" data-name="Path 458" d="M458.909,621.291H262.776a5.8,5.8,0,0,1-5.8-5.8V339.8a5.8,5.8,0,0,1,5.8-5.8H458.909a5.8,5.8,0,0,1,5.8,5.8v275.7A5.8,5.8,0,0,1,458.909,621.291ZM262.776,334.252a5.55,5.55,0,0,0-5.544,5.544v275.7a5.55,5.55,0,0,0,5.544,5.544H458.909a5.549,5.549,0,0,0,5.543-5.544V339.8a5.549,5.549,0,0,0-5.543-5.544Z" transform="translate(-218.171 -333.998)" fill="#00fff2"/>
      <path id="Path_459" data-name="Path 459" d="M779.307,621.291H583.173a5.8,5.8,0,0,1-5.8-5.8V339.8a5.8,5.8,0,0,1,5.8-5.8H779.307a5.8,5.8,0,0,1,5.8,5.8v275.7A5.8,5.8,0,0,1,779.307,621.291ZM583.173,334.252a5.549,5.549,0,0,0-5.542,5.544v275.7a5.549,5.549,0,0,0,5.542,5.544H779.307a5.55,5.55,0,0,0,5.544-5.544V339.8a5.55,5.55,0,0,0-5.544-5.544Z" transform="translate(-318.872 -333.998)" fill="#00fff2"/>
    </g>
    <g id="Group_298" data-name="Group 298" transform="translate(58.795 28.862)">
      <g id="Group_295" data-name="Group 295" transform="translate(0 160.139)">
        <rect id="Rectangle_253" data-name="Rectangle 253" width="10.675" height="126.995" transform="translate(222.783 135) rotate(180)" fill="#0ab0dd"/>
        <rect id="Rectangle_254" data-name="Rectangle 254" width="211.716" height="8.464" transform="translate(218.683 143.464) rotate(180)" fill="#0095b7"/>
        <rect id="Rectangle_255" data-name="Rectangle 255" width="209.24" height="126.995" transform="translate(2.868 8.005)" fill="#83d2ef"/>
        <rect id="Rectangle_256" data-name="Rectangle 256" width="11.031" height="8.005" transform="translate(225.651 8.005) rotate(180)" fill="#0095b7"/>
        <rect id="Rectangle_257" data-name="Rectangle 257" width="214.62" height="8.005" fill="#0ab0dd"/>
        <rect id="Rectangle_258" data-name="Rectangle 258" width="192.453" height="43.81" rx="11.521" transform="translate(11.262 17.861)" fill="#b6f0ff"/>
        <rect id="Rectangle_259" data-name="Rectangle 259" width="192.453" height="43.81" rx="11.521" transform="translate(11.262 74.747)" fill="#b6f0ff"/>
        <rect id="Rectangle_260" data-name="Rectangle 260" width="94.561" height="6.008" rx="2.617" transform="translate(154.769 22.539) rotate(180)" fill="#83d2ef"/>
        <rect id="Rectangle_261" data-name="Rectangle 261" width="94.561" height="6.008" rx="2.617" transform="translate(154.769 79.426) rotate(180)" fill="#83d2ef"/>
      </g>
      <path id="Path_460" data-name="Path 460" d="M827.293,521.351v-6.158h-5.665v-3.367h-5.944v3.367H795.1v-3.367h-5.943v3.367H776.368v-3.367h-5.944v3.367H755.784v-3.367H749.84V722.482h5.944V691.393h14.641v31.088h5.944V691.393h12.788v31.088H795.1V691.393h20.585v31.088h5.944V691.393h5.665v-6.158h-5.665V634.712h5.665v-6.158h-5.665V578.032h5.665v-6.158h-5.665V521.351Zm-38.137,0v50.523H776.368V521.351Zm0,56.681v50.523H776.368V578.032Zm-33.372-56.681h14.641v50.523H755.784Zm0,56.681h14.641v50.523H755.784Zm0,107.2V634.712h14.641v50.523Zm20.585,0V634.712h12.788v50.523Zm39.316,0H795.1V634.712h20.585Zm0-56.681H795.1V578.032h20.585Zm0-56.681H795.1V521.351h20.585Z" transform="translate(-431.872 -418.751)" fill="#83d2ef"/>
      <g id="Group_297" data-name="Group 297" transform="translate(23.701 0)">
        <g id="Group_296" data-name="Group 296">
          <rect id="Rectangle_262" data-name="Rectangle 262" width="268.354" height="142.476" transform="translate(275.121 142.476) rotate(180)" fill="#0ab0dd"/>
          <rect id="Rectangle_263" data-name="Rectangle 263" width="271.296" height="142.476" transform="translate(271.296 142.476) rotate(180)" fill="#83d2ef"/>
          <rect id="Rectangle_264" data-name="Rectangle 264" width="120.02" height="251.853" transform="translate(261.575 11.228) rotate(90)" fill="#b6f0ff"/>
        </g>
      </g>
    </g>
    <ellipse id="_Path_" data-name="&lt;Path&gt;" cx="196.936" cy="11.501" rx="196.936" ry="11.501" transform="translate(56.993 355.462)" fill="#b2dbff"/>
    <g id="Group_309" data-name="Group 309" transform="translate(101.696 150.882)">
      <g id="Group_307" data-name="Group 307" transform="translate(0 54.912)">
        <g id="Group_306" data-name="Group 306">
          <g id="Group_299" data-name="Group 299" transform="translate(7.198)">
            <path id="Path_461" data-name="Path 461" d="M644.209,640.884H362.573a3.392,3.392,0,0,1-3.383-3.382h0a3.393,3.393,0,0,1,3.383-3.383H644.209a3.392,3.392,0,0,1,3.382,3.383h0A3.391,3.391,0,0,1,644.209,640.884Z" transform="translate(-359.19 -634.12)" fill="#55bbf9"/>
            <path id="Path_462" data-name="Path 462" d="M743.08,640.884H677.149a3.391,3.391,0,0,1-3.382-3.382h0a3.392,3.392,0,0,1,3.382-3.383H743.08a3.392,3.392,0,0,1,3.382,3.383h0A3.391,3.391,0,0,1,743.08,640.884Z" transform="translate(-458.061 -634.12)" fill="#31a2db"/>
          </g>
          <g id="Group_305" data-name="Group 305" transform="translate(0 6.765)">
            <g id="Group_300" data-name="Group 300" transform="translate(68.471 8.478)">
              <rect id="Rectangle_265" data-name="Rectangle 265" width="216.605" height="23.574" fill="#263238"/>
              <rect id="Rectangle_266" data-name="Rectangle 266" width="216.605" height="23.574" fill="#003e7c"/>
            </g>
            <g id="Group_301" data-name="Group 301" transform="translate(279.155)">
              <path id="Path_463" data-name="Path 463" d="M758.561,793.7h6.487l-.27-149.716H755.8Z" transform="translate(-755.802 -643.985)" fill="#263238"/>
              <path id="Path_464" data-name="Path 464" d="M758.561,793.7h6.487l-.27-149.716H755.8Z" transform="translate(-755.802 -643.985)" fill="#003e7c"/>
            </g>
            <g id="Group_302" data-name="Group 302" transform="translate(215.705)">
              <path id="Path_465" data-name="Path 465" d="M669.757,793.7h-6.487l14.666-149.716h8.977Z" transform="translate(-663.269 -643.985)" fill="#0050af"/>
            </g>
            <g id="Group_303" data-name="Group 303" transform="translate(63.45)">
              <path id="Path_466" data-name="Path 466" d="M443.984,793.7h6.487l-.27-149.716h-8.976Z" transform="translate(-441.225 -643.985)" fill="#003e7c"/>
            </g>
            <g id="Group_304" data-name="Group 304">
              <path id="Path_467" data-name="Path 467" d="M355.18,793.7h-6.487l14.666-149.716h8.976Z" transform="translate(-348.693 -643.985)" fill="#0050af"/>
            </g>
          </g>
        </g>
      </g>
      <g id="Group_308" data-name="Group 308" transform="translate(139.181)">
        <path id="Path_468" data-name="Path 468" d="M614.6,620.719h-14.95l-5.988-29.237h14.95Z" transform="translate(-564.867 -565.807)" fill="#003e7c"/>
        <path id="Path_469" data-name="Path 469" d="M621.705,602.926H556.832a3.649,3.649,0,0,1-3.675-3.911l2.477-41.067a4.222,4.222,0,0,1,4.146-3.91h64.873a3.65,3.65,0,0,1,3.675,3.91l-2.477,41.067A4.222,4.222,0,0,1,621.705,602.926Z" transform="translate(-552.135 -554.039)" fill="#003e7c"/>
        <path id="Path_470" data-name="Path 470" d="M620.224,602.926H555.351a3.649,3.649,0,0,1-3.675-3.911l2.477-41.067a4.222,4.222,0,0,1,4.146-3.91h64.873a3.65,3.65,0,0,1,3.675,3.91l-2.477,41.067A4.223,4.223,0,0,1,620.224,602.926Z" transform="translate(-551.669 -554.039)" fill="#407bff"/>
        <path id="Path_471" data-name="Path 471" d="M556.282,601.826a1.62,1.62,0,0,1-1.646-1.757L557.113,559a2.182,2.182,0,0,1,2.119-2H624.1a1.618,1.618,0,0,1,1.646,1.757l-2.477,41.067a2.182,2.182,0,0,1-2.118,2Z" transform="translate(-552.601 -554.97)" fill="#fff"/>
        <path id="Path_472" data-name="Path 472" d="M598.581,554.039l4.216,14.433,12.513-14.433Z" transform="translate(-566.414 -554.039)" opacity="0.2"/>
      </g>
    </g>
    <g id="Group_329" data-name="Group 329" transform="translate(127.174 93.5)">
      <g id="Group_322" data-name="Group 322">
        <path id="Path_473" data-name="Path 473" d="M451.531,502.279c.1.78.588,1.374,1.1,1.329s.847-.714.75-1.493-.589-1.374-1.1-1.329S451.435,501.5,451.531,502.279Z" transform="translate(-406.488 -479.919)" fill="#3a3989"/>
        <path id="Path_474" data-name="Path 474" d="M452.785,504.633a24.99,24.99,0,0,0,3.512,5.641c-1.12,1.127-3.158.667-3.158.667Z" transform="translate(-406.887 -481.129)" fill="url(#linear-gradient)"/>
        <path id="Path_475" data-name="Path 475" d="M447.578,497.039a.46.46,0,0,1-.482-.631,4.425,4.425,0,0,1,3.14-2.733.453.453,0,0,1,.531.376.46.46,0,0,1-.375.531,3.509,3.509,0,0,0-2.442,2.172A.463.463,0,0,1,447.578,497.039Z" transform="translate(-405.088 -477.681)" fill="#3a3989"/>
        <path id="Path_476" data-name="Path 476" d="M417.836,520.809l6.107,4.673,8.314,6.372a8.818,8.818,0,0,0-.813,3.036c-.289,2.338-.583,4.116,4.6,5.5a2.943,2.943,0,0,1,2.219,2.3c.207,1.378-.642,3.086-5.436,3.874a22.025,22.025,0,0,1-13.536-2.311c-2.031-.976-2.083-2.23-1.181-4.3C420.663,534.106,419.419,526.633,417.836,520.809Z" transform="translate(-395.813 -486.213)" fill="url(#linear-gradient-2)"/>
        <path id="Path_477" data-name="Path 477" d="M407.78,548.119a41.81,41.81,0,0,0,2.878-7.025s15.447-.846,20.547.677,8.263,8.126,8.263,8.126Z" transform="translate(-392.742 -492.514)" fill="url(#linear-gradient-3)"/>
        <g id="Group_311" data-name="Group 311" transform="translate(0 53.869)">
          <path id="Path_478" data-name="Path 478" d="M408.245,565.966c-.382,1.138-.8,2.53-1.194,3.815l-1.142,3.954c-.718,2.648-1.4,5.3-1.946,7.936a77.812,77.812,0,0,0-1.307,7.824,37.157,37.157,0,0,0-.227,7.279,16.394,16.394,0,0,0,.471,3c.064.2.113.431.179.623s.14.359.2.545l.011.034c0,.013.016.04-.022-.034a3.073,3.073,0,0,0-.172-.284,4.157,4.157,0,0,0-.33-.428,2.7,2.7,0,0,0-.453-.418c-.2-.14-.23-.115-.189-.07a4.413,4.413,0,0,0,.954.538c.459.207,1,.413,1.572.605,1.152.379,2.425.736,3.727,1.079,5.248,1.326,10.962,2.349,16.537,3.537l-.182,7.041a86.962,86.962,0,0,1-8.978.736,82.849,82.849,0,0,1-9.137-.152,43.265,43.265,0,0,1-4.81-.584c-.835-.151-1.694-.331-2.611-.579a16.316,16.316,0,0,1-3.058-1.129,11.3,11.3,0,0,1-2-1.266,9.111,9.111,0,0,1-1.224-1.181,8.064,8.064,0,0,1-.65-.867c-.109-.169-.213-.342-.313-.516l-.129-.244-.7-1.433c-.213-.476-.381-.943-.566-1.419a28.561,28.561,0,0,1-1.377-5.486c-.966-7.062-.217-13.351.839-19.477.566-3.051,1.237-6.046,2.045-8.994q.6-2.213,1.29-4.4c.463-1.486.937-2.853,1.527-4.448Z" transform="translate(-386.756 -552.747)" fill="url(#linear-gradient-4)"/>
          <g id="Group_310" data-name="Group 310">
            <path id="Path_479" data-name="Path 479" d="M397.937,549.389c9.605-2.533,15.3,5.324,12.046,18.318s-4.334,13.443-4.334,13.443l-19.8-3.3C388.289,565.074,388.1,551.983,397.937,549.389Z" transform="translate(-385.849 -548.916)" fill="#e9fcff"/>
          </g>
          <path id="Path_480" data-name="Path 480" d="M444.1,621.759l-1.495-.137c-4.245,0-4.97,1.164-7.583,3.59l-.972,5.34c6.856,3.513,10.533-.338,10.534-.339h6.352l-2.238-5.133A5.569,5.569,0,0,0,444.1,621.759Z" transform="translate(-400.998 -571.767)" fill="#b55b52"/>
        </g>
        <path id="Path_481" data-name="Path 481" d="M414.044,498.914c1.727,9.253,2.267,14.765,7.564,18.892,7.968,6.208,18.938.309,20.008-9.322.963-8.669-2.021-22.345-11.6-24.772A13.073,13.073,0,0,0,414.044,498.914Z" transform="translate(-394.638 -474.422)" fill="url(#linear-gradient-5)"/>
        <path id="Path_482" data-name="Path 482" d="M427.609,498.081c6.6-.531,4.675-7.485,2.63-8.946,3.1-1.169,5.235-6.077,2.25-9.466,1.748-4.558-3.243-10.05-12.008-9.232-6.4.6-7.129,3.973-7.129,3.973s-7.677-.805-10.861,5.53c-2.724,5.421.576,8.319.576,8.319s-5.726,1.665-4.148,9.174c1.694,8.063,7.888,6.194,7.888,6.194s-1.391,7.387,6.985,7.494c7.243.092,7.331-5.332,7.331-5.332S430.531,504.864,427.609,498.081Z" transform="translate(-389.87 -470.355)" fill="url(#linear-gradient-6)"/>
        <path id="Path_483" data-name="Path 483" d="M433.584,509.321a8.621,8.621,0,0,0,4.017,4.607c2.417,1.238,4.264-1.332,3.839-3.964-.383-2.368-2.449-5.408-4.993-5.551C433.94,504.271,432.681,506.862,433.584,509.321Z" transform="translate(-400.76 -481.057)" fill="url(#linear-gradient-7)"/>
        <g id="Group_321" data-name="Group 321" transform="translate(4.234 52.451)">
          <g id="Group_320" data-name="Group 320">
            <g id="Group_319" data-name="Group 319">
              <g id="Group_318" data-name="Group 318">
                <g id="Group_313" data-name="Group 313" transform="translate(19.404 78.057)">
                  <path id="Path_484" data-name="Path 484" d="M574.4,833.742l9.029-3.664-6.375-21.693-9.029,3.664Z" transform="translate(-466.746 -707.105)" fill="url(#linear-gradient-4)"/>
                  <path id="Path_485" data-name="Path 485" d="M571.117,822.564l9.122-3.345-3.184-10.834-9.029,3.664Z" transform="translate(-466.746 -707.105)" opacity="0.2"/>
                  <path id="Path_486" data-name="Path 486" d="M584.392,834.147l-10.324,3.593a.7.7,0,0,0-.463.865l2.342,8.341a1.725,1.725,0,0,0,2.178,1.075c3.572-1.313,5.008-2.032,9.423-3.934a140.517,140.517,0,0,0,12.715-6.073c3.441-2.028,1.367-5.495-.309-4.93-3.969,1.339-10.48,2.211-13.783,1.076A2.741,2.741,0,0,0,584.392,834.147Z" transform="translate(-468.49 -714.849)" fill="url(#linear-gradient-6)"/>
                  <g id="Group_312" data-name="Group 312">
                    <path id="Path_487" data-name="Path 487" d="M455.454,662.16s68.248,6.147,70,25.784c3.557,39.945,9,78.464,9,78.464l-13.881,5.078s-17-43.887-16.772-75.191c-19.68-5.556-71.438,2.6-79.9-12.583-7.473-13.406-.915-23.029-.915-23.029Z" transform="translate(-420.322 -660.683)" fill="url(#linear-gradient-3)"/>
                  </g>
                  <path id="Path_488" data-name="Path 488" d="M563.692,820.591l17.285-5.839-.755-7.878-19.484,6.279Z" transform="translate(-464.455 -706.63)" fill="#407bff"/>
                  <path id="Path_489" data-name="Path 489" d="M593.621,834.071a12.166,12.166,0,0,1-2.563.524.226.226,0,0,1-.207-.359c.222-.306,2.2-2.989,3.48-2.94a.851.851,0,0,1,.71.433,1.244,1.244,0,0,1,.136,1.255A2.625,2.625,0,0,1,593.621,834.071Zm-2.083.008c1.758-.245,2.951-.717,3.231-1.293a.813.813,0,0,0-.114-.817.4.4,0,0,0-.341-.219C593.628,831.724,592.369,833.029,591.539,834.079Z" transform="translate(-473.906 -714.307)" fill="#407bff"/>
                  <path id="Path_490" data-name="Path 490" d="M590.778,833.953a.223.223,0,0,1-.106.01.226.226,0,0,1-.175-.132c-.048-.109-1.174-2.68-.557-3.9a1.13,1.13,0,0,1,.8-.614.868.868,0,0,1,1,.378c.561.928-.142,3.323-.867,4.187A.227.227,0,0,1,590.778,833.953Zm-.041-4.162a.674.674,0,0,0-.394.348c-.368.725.084,2.265.413,3.129.564-.953.969-2.728.6-3.337-.069-.116-.192-.24-.517-.169A.89.89,0,0,0,590.737,829.791Z" transform="translate(-473.575 -713.676)" fill="#407bff"/>
                </g>
                <g id="Group_315" data-name="Group 315" transform="translate(0 77.216)">
                  <path id="Path_491" data-name="Path 491" d="M506.852,844.116l9.652-.457,1.58-22.788-9.652.457Z" transform="translate(-428.114 -710.19)" fill="url(#linear-gradient-4)"/>
                  <path id="Path_492" data-name="Path 492" d="M515.532,851.538l-10.925-.346a.7.7,0,0,0-.742.642l-.8,8.627a1.724,1.724,0,0,0,1.647,1.784c3.806.055,5.63-.112,10.434.04,2.956.094,8.771.534,12.823.023,3.963-.5,3.432-4.5,1.668-4.649-4.174-.342-9.769-3.227-12.447-5.47A2.743,2.743,0,0,0,515.532,851.538Z" transform="translate(-426.921 -719.719)" fill="url(#linear-gradient-6)"/>
                  <path id="Path_493" data-name="Path 493" d="M524.94,853.216a12.105,12.105,0,0,1-2.58-.43.226.226,0,0,1-.066-.408c.318-.206,3.13-2,4.3-1.5a.851.851,0,0,1,.507.659,1.245,1.245,0,0,1-.322,1.221A2.626,2.626,0,0,1,524.94,853.216Zm-1.947-.739c1.729.4,3.011.388,3.479-.049a.815.815,0,0,0,.186-.805.4.4,0,0,0-.24-.326C525.788,851.027,524.144,851.8,522.993,852.477Z" transform="translate(-432.935 -719.593)" fill="#407bff"/>
                  <path id="Path_494" data-name="Path 494" d="M522.407,851.716a.221.221,0,0,1-.1-.028.228.228,0,0,1-.116-.186c-.006-.119-.136-2.922.875-3.837a1.134,1.134,0,0,1,.971-.286.87.87,0,0,1,.8.712c.191,1.068-1.323,3.052-2.31,3.6A.23.23,0,0,1,522.407,851.716Zm1.454-3.9a.672.672,0,0,0-.493.184c-.6.545-.734,2.145-.736,3.069.868-.688,1.882-2.2,1.757-2.9-.023-.133-.093-.293-.422-.344A.95.95,0,0,0,523.86,847.816Z" transform="translate(-432.931 -718.516)" fill="#407bff"/>
                  <g id="Group_314" data-name="Group 314" transform="translate(79.44 110.688)">
                    <path id="Path_495" data-name="Path 495" d="M508.752,821.338l9.656-.457-.909,13.031-9.623-.016Z" transform="translate(-507.876 -820.881)" opacity="0.2"/>
                  </g>
                  <path id="Path_496" data-name="Path 496" d="M423.9,660.743s73.535,11.234,72.367,28.169c-2.1,30.481-12.321,90.026-12.321,90.026l-14.482.2s-3.422-61.084,2-83.345c-18.081,0-69.111-.633-76.077-9.932-7.694-10.27.221-26.408.221-26.408Z" transform="translate(-392.023 -659.457)" fill="url(#linear-gradient-3)"/>
                  <path id="Path_497" data-name="Path 497" d="M502.078,831.283l17.529-.273.862-9.266-19.234.755Z" transform="translate(-426.348 -710.464)" fill="#407bff"/>
                </g>
                <path id="Path_498" data-name="Path 498" d="M437.391,547.713c-5.917-1.151-32.628-.822-32.628-.822a10.664,10.664,0,0,0-10.882,9.426c-.935,8.238,4.291,26.643,4.474,36.034.224,11.528-1.979,16.2-2.2,31.713l50.952,2.318c0-31.21-1.354-57.054-2.591-69.444C444.086,552.632,443.309,548.865,437.391,547.713Z" transform="translate(-392.572 -546.848)" fill="#407bff"/>
                <path id="Path_499" data-name="Path 499" d="M437.391,547.713c-5.917-1.151-32.628-.822-32.628-.822a10.664,10.664,0,0,0-10.882,9.426c-.935,8.238,4.291,26.643,4.474,36.034.224,11.528-1.979,16.2-2.2,31.713l50.952,2.318c0-31.21-1.354-57.054-2.591-69.444C444.086,552.632,443.309,548.865,437.391,547.713Z" transform="translate(-392.572 -546.848)" fill="#e9fcff"/>
                <g id="Group_317" data-name="Group 317" transform="translate(34.229 1.534)">
                  <path id="Path_500" data-name="Path 500" d="M461.265,562.456c1.6,5.483,3.2,11.116,4.856,16.627s3.346,11.04,5.262,16.274c.464,1.331.97,2.569,1.461,3.847l.78,1.8.1.226.049.113.024.056.011.025-.04-.074a3.907,3.907,0,0,0-.645-.856c-.352-.336-.485-.364-.508-.359a2.457,2.457,0,0,0,.766.476,14.687,14.687,0,0,0,1.537.619c1.147.394,2.433.752,3.747,1.105,5.308,1.353,11.108,2.39,16.762,3.594l-.181,7.041a87.725,87.725,0,0,1-9.108.741,82.624,82.624,0,0,1-9.276-.177,42.433,42.433,0,0,1-4.9-.631c-.855-.163-1.735-.357-2.691-.638a14.746,14.746,0,0,1-3.246-1.34,10.034,10.034,0,0,1-2.237-1.719,8.425,8.425,0,0,1-1.3-1.74l-.346-.643-1.148-2.174c-.675-1.422-1.4-2.857-2-4.27-1.258-2.846-2.351-5.67-3.444-8.5-1.029-2.839-2.048-5.674-2.981-8.52-1.876-5.711-3.571-11.376-5.047-17.251Z" transform="translate(-443.695 -553.288)" fill="url(#linear-gradient-14)"/>
                  <g id="Group_316" data-name="Group 316">
                    <path id="Path_501" data-name="Path 501" d="M445.039,552.592c6.969-7.078,15.873-3.224,19.706,9.611s3.13,13.774,3.13,13.774l-18.716,7.259C444.74,571,437.9,559.84,445.039,552.592Z" transform="translate(-441.942 -549.085)" fill="#e9fcff"/>
                  </g>
                  <path id="Path_502" data-name="Path 502" d="M519.976,621.759l-1.494-.137c-4.245,0-4.97,1.164-7.583,3.59l-.973,5.34c6.856,3.513,10.533-.338,10.534-.339h6.353l-2.238-5.133A5.57,5.57,0,0,0,519.976,621.759Z" transform="translate(-463.309 -571.884)" fill="url(#linear-gradient-15)"/>
                </g>
              </g>
            </g>
          </g>
        </g>
      </g>
      <g id="Group_328" data-name="Group 328" transform="translate(7.462 160.35)">
        <rect id="Rectangle_267" data-name="Rectangle 267" width="70.266" height="9.361" rx="3.775" transform="translate(70.266 9.361) rotate(180)" fill="#407bff"/>
        <g id="Group_323" data-name="Group 323" transform="translate(0 9.361)">
          <path id="Path_503" data-name="Path 503" d="M399.613,822.132h-2.882l3.318-104.276h3.988Z" transform="translate(-396.731 -717.856)" fill="#407bff"/>
          <path id="Path_504" data-name="Path 504" d="M399.613,822.132h-2.882l3.318-104.276h3.988Z" transform="translate(-396.731 -717.856)" fill="#fff" opacity="0.4"/>
        </g>
        <g id="Group_324" data-name="Group 324" transform="translate(24.992 9.361)">
          <path id="Path_505" data-name="Path 505" d="M437.6,822.132h2.882l-3.318-104.276h-3.988Z" transform="translate(-433.179 -717.856)" fill="#407bff"/>
          <path id="Path_506" data-name="Path 506" d="M437.6,822.132h2.882l-3.318-104.276h-3.988Z" transform="translate(-433.179 -717.856)" fill="#fff" opacity="0.4"/>
        </g>
        <g id="Group_325" data-name="Group 325" transform="translate(37.967 9.361)">
          <path id="Path_507" data-name="Path 507" d="M454.984,822.132H452.1l3.318-104.276h3.988Z" transform="translate(-452.101 -717.856)" fill="#407bff"/>
          <path id="Path_508" data-name="Path 508" d="M454.984,822.132H452.1l3.318-104.276h3.988Z" transform="translate(-452.101 -717.856)" fill="#fff" opacity="0.4"/>
        </g>
        <g id="Group_326" data-name="Group 326" transform="translate(62.96 9.361)">
          <path id="Path_509" data-name="Path 509" d="M492.973,822.132h2.882l-3.318-104.276h-3.988Z" transform="translate(-488.549 -717.856)" fill="#407bff"/>
          <path id="Path_510" data-name="Path 510" d="M492.973,822.132h2.882l-3.318-104.276h-3.988Z" transform="translate(-488.549 -717.856)" fill="#fff" opacity="0.4"/>
        </g>
        <g id="Group_327" data-name="Group 327" transform="translate(3.173 9.358)" opacity="0.3">
          <path id="Path_511" data-name="Path 511" d="M401.5,717.851h3.993l-.186,4.432h-3.949Z" transform="translate(-401.359 -717.851)" fill="#407bff"/>
          <path id="Path_512" data-name="Path 512" d="M437.308,722.283h-3.941l-.186-4.432h3.986Z" transform="translate(-411.361 -717.851)" fill="#407bff"/>
          <path id="Path_513" data-name="Path 513" d="M460.862,717.851l-.186,4.432h-3.941l.142-4.432Z" transform="translate(-418.764 -717.851)" fill="#407bff"/>
          <path id="Path_514" data-name="Path 514" d="M492.68,722.283h-3.948l-.186-4.432h3.993Z" transform="translate(-428.762 -717.851)" fill="#407bff"/>
        </g>
      </g>
    </g>
    <g id="Group_333" data-name="Group 333" transform="translate(221.725 11.723)">
      <g id="Group_331" data-name="Group 331">
        <path id="Path_515" data-name="Path 515" d="M697.755,475.8H535.107a9.151,9.151,0,0,1-9.212-9.8l6.211-102.961a10.586,10.586,0,0,1,10.4-9.8H705.149a9.15,9.15,0,0,1,9.213,9.8L708.151,466A10.587,10.587,0,0,1,697.755,475.8Z" transform="translate(-524.41 -351.767)" fill="#83d2ef"/>
        <path id="Path_516" data-name="Path 516" d="M571.088,500.231l15.006,51.333L630.6,500.231Z" transform="translate(-538.62 -397.968)" fill="#83d2ef"/>
        <path id="Path_517" data-name="Path 517" d="M720.873,440.07H629.7a5.129,5.129,0,0,1-5.164-5.5l3.481-57.715a5.935,5.935,0,0,1,5.828-5.5h91.173a5.129,5.129,0,0,1,5.164,5.5L726.7,434.574A5.934,5.934,0,0,1,720.873,440.07Z" transform="translate(-555.415 -357.465)" opacity="0.82" fill="url(#linear-gradient-16)" style="mix-blend-mode: color-dodge;isolation: isolate"/>
        <path id="Path_518" data-name="Path 518" d="M649.732,476.374H558.559a5.129,5.129,0,0,1-5.164-5.5l3.481-57.715a5.934,5.934,0,0,1,5.828-5.5h91.173a5.129,5.129,0,0,1,5.164,5.5l-3.481,57.715A5.935,5.935,0,0,1,649.732,476.374Z" transform="translate(-533.056 -368.875)" opacity="0.82" fill="url(#linear-gradient-16)" style="mix-blend-mode: color-dodge;isolation: isolate"/>
        <g id="Group_330" data-name="Group 330" transform="translate(18.889 7.406)" opacity="0.5">
          <path id="Path_519" data-name="Path 519" d="M556.692,364.915a3.138,3.138,0,0,1-2.916,3.021,2.64,2.64,0,0,1-2.482-3.021,3.137,3.137,0,0,1,2.916-3.021A2.641,2.641,0,0,1,556.692,364.915Z" transform="translate(-551.285 -361.894)" fill="#fff"/>
          <path id="Path_520" data-name="Path 520" d="M571.245,364.915a3.138,3.138,0,0,1-2.916,3.021,2.64,2.64,0,0,1-2.482-3.021,3.137,3.137,0,0,1,2.916-3.021A2.64,2.64,0,0,1,571.245,364.915Z" transform="translate(-555.859 -361.894)" fill="#fff"/>
          <path id="Path_521" data-name="Path 521" d="M585.8,364.915a3.138,3.138,0,0,1-2.916,3.021,2.64,2.64,0,0,1-2.482-3.021,3.137,3.137,0,0,1,2.916-3.021A2.64,2.64,0,0,1,585.8,364.915Z" transform="translate(-560.433 -361.894)" fill="#fff"/>
        </g>
        <path id="Path_522" data-name="Path 522" d="M695.87,474.172H533.222a9.4,9.4,0,0,1-9.465-10.073l6.21-102.961a10.825,10.825,0,0,1,10.65-10.043H703.263a9.4,9.4,0,0,1,9.466,10.073l-6.21,102.961A10.824,10.824,0,0,1,695.87,474.172ZM540.617,351.6a10.308,10.308,0,0,0-10.142,9.565l-6.211,102.961a8.9,8.9,0,0,0,8.959,9.535H695.87a10.309,10.309,0,0,0,10.142-9.565l6.21-102.961a8.9,8.9,0,0,0-8.959-9.535Z" transform="translate(-523.738 -351.094)" fill="#263238" opacity="0.3"/>
      </g>
    </g>
  </g>
</svg>
